<?xml version="1.0" encoding="UTF-8" standalone="no"?>
<!-- Created with Inkscape (http://www.inkscape.org/) -->

<svg
   xmlns:dc="http://purl.org/dc/elements/1.1/"
   xmlns:cc="http://creativecommons.org/ns#"
   xmlns:rdf="http://www.w3.org/1999/02/22-rdf-syntax-ns#"
   xmlns:svg="http://www.w3.org/2000/svg"
   xmlns="http://www.w3.org/2000/svg"
   xmlns:sodipodi="http://sodipodi.sourceforge.net/DTD/sodipodi-0.dtd"
   xmlns:inkscape="http://www.inkscape.org/namespaces/inkscape"
   width="772mm"
   height="772mm"
   viewBox="0 0 772 772.00001"
   version="1.1"
   id="svg8"
   inkscape:version="0.92.4 (5da689c313, 2019-01-14)"
   sodipodi:docname="car.svg">
  <defs
     id="defs2" />
  <sodipodi:namedview
     id="base"
     pagecolor="#ffffff"
     bordercolor="#666666"
     borderopacity="1.0"
     inkscape:pageopacity="0.0"
     inkscape:pageshadow="2"
     inkscape:zoom="0.24748737"
     inkscape:cx="1684.2205"
     inkscape:cy="1208.4465"
     inkscape:document-units="mm"
     inkscape:current-layer="g3786"
     showgrid="false"
     inkscape:window-width="1920"
     inkscape:window-height="1017"
     inkscape:window-x="-8"
     inkscape:window-y="-8"
     inkscape:window-maximized="1"
     inkscape:snap-others="false"
     showguides="true"
     inkscape:guide-bbox="true"
     fit-margin-top="0"
     fit-margin-left="0"
     fit-margin-right="0"
     fit-margin-bottom="0" />
  <metadata
     id="metadata5">
    <rdf:RDF>
      <cc:Work
         rdf:about="">
        <dc:format>image/svg+xml</dc:format>
        <dc:type
           rdf:resource="http://purl.org/dc/dcmitype/StillImage" />
        <dc:title></dc:title>
      </cc:Work>
    </rdf:RDF>
  </metadata>
  <g
     inkscape:label="Layer 1"
     inkscape:groupmode="layer"
     id="layer1"
     transform="translate(415.98464,551.01704)">
    <g
       id="g3786">
      <path
         id="path3781"
         style="fill:none;fill-opacity:1;stroke:#000000;stroke-width:10;stroke-linecap:round;stroke-linejoin:round;stroke-miterlimit:10;stroke-dasharray:none;stroke-opacity:1"
         d="m 268.41681,-85.642075 c 0,0 -0.55839,-36.319235 -3.77975,-48.045485 -3.82289,-13.91593 -11.35978,-30.92571 -23.48825,-38.7467 -29.86064,-19.25549 -76.5057,-18.90528 -106.58929,0 -12.97953,8.15666 -22.18089,32.91381 -26.06923,47.74214 -2.69129,10.26331 -1.19878,33.888105 -1.19878,33.888105 l -303.28885,-1.511891 c 0,0 0.78457,-32.537344 -2.26786,-44.525174 -4.2559,-16.7143 -5.15462,-26.45822 -19.78446,-35.59318 -25.22489,-15.75057 -76.83045,-13.93786 -103.1004,0 -12.78322,6.7823 -17.91342,19.63128 -22.80828,33.24935 -5.47161,15.22263 -4.84883,50.519043 -4.84883,50.519043 0,0 -21.6672,-2.076798 -45.94271,-23.823563 -30.09927,-25.64833 -11.30732,-43.38642 -0.62925,-60.49248 13.52005,-21.65885 44.4915,-26.33825 69.15983,-32.92352 50.42855,-13.462 103.96225,-10.00643 156.1142,-12.1126 79.016728,-3.19112 185.150124,0.97223 237.242125,-0.78144 0,0 31.246879,-27.40597 77.021945,-24.78889 81.94461,4.685 93.03359,5.73475 204.15165,23.92747 -26.30063,-8.27444 -36.70289,-13.75469 -55.33422,-19.81249 -47.36447,-15.4001 -94.47843,-32.61696 -143.39305,-41.99324 -57.133247,-10.95167 -127.316,-21.78367 -173.751573,-16.36173 l -88.579947,75.27727 m 461.05879,2.89019 2.45128,63.84496 -25.70239,68.035707 -56.6427,2.138148"
         inkscape:connector-curvature="0"
         sodipodi:nodetypes="cssssccssssccaaacscaacccccc" />
      <ellipse
         style="opacity:0;fill:none;fill-opacity:1;stroke-width:10;stroke-linecap:round;stroke-linejoin:round;stroke-miterlimit:10;stroke-dasharray:none"
         id="path4620"
         cx="-230.75096"
         cy="-83.905365"
         rx="84.457169"
         ry="49.712132" />
      <path
         style="opacity:0;fill:none;fill-opacity:1;stroke-width:10;stroke-linecap:round;stroke-linejoin:round;stroke-miterlimit:10;stroke-dasharray:none"
         id="path4622"
         sodipodi:type="arc"
         sodipodi:cx="-218.45654"
         sodipodi:cy="-78.025383"
         sodipodi:rx="48.643055"
         sodipodi:ry="36.348656"
         sodipodi:start="0"
         sodipodi:end="6.2533727"
         d="m -169.81349,-78.025383 a 48.643055,36.348656 0 0 1 -48.28051,36.347646 48.643055,36.348656 0 0 1 -49.00019,-35.805842 48.643055,36.348656 0 0 1 47.55011,-36.881371 48.643055,36.348656 0 0 1 49.70898,35.256079 l -48.62144,1.083488 z" />
      <path
         style="opacity:0;fill:none;fill-opacity:1;stroke-width:10;stroke-linecap:round;stroke-linejoin:round;stroke-miterlimit:10;stroke-dasharray:none"
         id="path4624"
         sodipodi:type="arc"
         sodipodi:cx="-292.22293"
         sodipodi:cy="-98.872696"
         sodipodi:rx="32.60688"
         sodipodi:ry="43.297665"
         sodipodi:start="0"
         sodipodi:end="6.2533751"
         d="m -259.61605,-98.872696 a 32.60688,43.297665 0 0 1 -32.36388,43.296462 32.60688,43.297665 0 0 1 -32.84626,-42.65113 32.60688,43.297665 0 0 1 31.87431,-43.932176 32.60688,43.297665 0 0 1 33.32134,41.99632 l -32.59239,1.290524 z" />
      <path
         style="opacity:0;fill:none;fill-opacity:1;stroke-width:10;stroke-linecap:round;stroke-linejoin:round;stroke-miterlimit:10;stroke-dasharray:none"
         id="path4626"
         sodipodi:type="arc"
         sodipodi:cx="-268.16867"
         sodipodi:cy="-136.82507"
         sodipodi:rx="13.898015"
         sodipodi:ry="2.1381562"
         sodipodi:start="0"
         sodipodi:end="6.2533751"
         d="m -254.27066,-136.82507 a 13.898015,2.1381562 0 0 1 -13.79444,2.13809 13.898015,2.1381562 0 0 1 -14.00004,-2.10622 13.898015,2.1381562 0 0 1 13.58577,-2.1695 13.898015,2.1381562 0 0 1 14.20254,2.0739 l -13.89184,0.0637 z" />
      <path
         style="opacity:0;fill:#000000;fill-opacity:1;stroke-width:10;stroke-linecap:round;stroke-linejoin:round;stroke-miterlimit:10;stroke-dasharray:none"
         id="path4628"
         sodipodi:type="arc"
         sodipodi:cx="-292.22293"
         sodipodi:cy="-98.872696"
         sodipodi:rx="17.639788"
         sodipodi:ry="3.2072344"
         sodipodi:start="0"
         sodipodi:end="6.2533751"
         d="m -274.58314,-98.872696 a 17.639788,3.2072344 0 0 1 -17.50833,3.207145 17.639788,3.2072344 0 0 1 -17.76929,-3.159343 17.639788,3.2072344 0 0 1 17.24348,-3.254236 17.639788,3.2072344 0 0 1 18.0263,3.11084 l -17.63195,0.09559 z" />
      <path
         style="opacity:0;fill:#000000;fill-opacity:1;stroke-width:10;stroke-linecap:round;stroke-linejoin:round;stroke-miterlimit:10;stroke-dasharray:none"
         id="path4630"
         sodipodi:type="arc"
         sodipodi:cx="-260.95239"
         sodipodi:cy="-109.02909"
         sodipodi:rx="42.495853"
         sodipodi:ry="31.003265"
         sodipodi:start="0"
         sodipodi:end="6.2533751"
         d="m -218.45654,-109.02909 a 42.495853,31.003265 0 0 1 -42.17915,31.002404 42.495853,31.003265 0 0 1 -42.80784,-30.540314 42.495853,31.003265 0 0 1 41.54111,-31.45761 42.495853,31.003265 0 0 1 43.427,30.07144 l -42.47697,0.92408 z" />
      <path
         style="opacity:1;fill:#000000;fill-opacity:1;stroke-width:8.73026276;stroke-linecap:round;stroke-linejoin:round;stroke-miterlimit:10;stroke-dasharray:none;paint-order:stroke fill markers"
         d="m -272.9312,-166.43395 a 69.999999,69.999999 0 0 0 -69.99986,69.999958 69.999999,69.999999 0 0 0 69.99986,69.999461 69.999999,69.999999 0 0 0 70.00038,-69.999461 69.999999,69.999999 0 0 0 -70.00038,-69.999958 z m 0,29.99985 a 39.999999,39.999999 0 0 1 3.99355,0.19997 39.999999,39.999999 0 0 1 3.95325,0.5974 39.999999,39.999999 0 0 1 3.87418,0.98907 39.999999,39.999999 0 0 1 3.75585,1.37099 39.999999,39.999999 0 0 1 3.60029,1.73942 39.999999,39.999999 0 0 1 3.40858,2.08979 39.999999,39.999999 0 0 1 3.18327,2.41951 39.999999,39.999999 0 0 1 2.9254,2.72539 39.999999,39.999999 0 0 1 2.6386,3.00397 39.999999,39.999999 0 0 1 2.32596,3.2525 39.999999,39.999999 0 0 1 1.98954,3.46803 39.999999,39.999999 0 0 1 1.63297,3.6499 39.999999,39.999999 0 0 1 1.26091,3.79407 39.999999,39.999999 0 0 1 0.87591,3.90157 39.999999,39.999999 0 0 1 0.48163,3.968743 39.999999,39.999999 0 0 1 0.10025,2.829785 39.999999,39.999999 0 0 1 -0.19999,3.993016 39.999999,39.999999 0 0 1 -0.59738,3.953749 39.999999,39.999999 0 0 1 -0.98908,3.874166 39.999999,39.999999 0 0 1 -1.37098,3.755819 39.999999,39.999999 0 0 1 -1.73943,3.600269 39.999999,39.999999 0 0 1 -2.08979,3.408562 39.999999,39.999999 0 0 1 -2.41949,3.182732 39.999999,39.999999 0 0 1 -2.72542,2.925902 39.999999,39.999999 0 0 1 -3.00395,2.638598 39.999999,39.999999 0 0 1 -3.25251,2.325935 39.999999,39.999999 0 0 1 -3.46801,1.989528 39.999999,39.999999 0 0 1 -3.64991,1.632971 39.999999,39.999999 0 0 1 -3.79408,1.260894 39.999999,39.999999 0 0 1 -3.90157,0.875394 39.999999,39.999999 0 0 1 -3.96875,0.482147 39.999999,39.999999 0 0 1 -2.8298,0.10025 39.999999,39.999999 0 0 1 -3.99304,-0.199997 39.999999,39.999999 0 0 1 -3.95376,-0.597377 39.999999,39.999999 0 0 1 -3.87367,-0.989584 39.999999,39.999999 0 0 1 -3.75636,-1.370984 39.999999,39.999999 0 0 1 -3.60029,-1.738891 39.999999,39.999999 0 0 1 -3.40858,-2.089798 39.999999,39.999999 0 0 1 -3.18275,-2.419995 39.999999,39.999999 0 0 1 -2.92592,-2.725405 39.999999,39.999999 0 0 1 -2.6386,-3.003932 39.999999,39.999999 0 0 1 -2.32596,-3.251972 39.999999,39.999999 0 0 1 -1.98902,-3.468512 39.999999,39.999999 0 0 1 -1.6335,-3.649349 39.999999,39.999999 0 0 1 -1.2609,-3.794079 39.999999,39.999999 0 0 1 -0.8754,-3.901546 39.999999,39.999999 0 0 1 -0.48214,-3.969229 39.999999,39.999999 0 0 1 -0.10025,-2.829282 39.999999,39.999999 0 0 1 0.19999,-3.993518 39.999999,39.999999 0 0 1 0.59737,-3.95325 39.999999,39.999999 0 0 1 0.98961,-3.87418 39.999999,39.999999 0 0 1 1.37098,-3.75584 39.999999,39.999999 0 0 1 1.73891,-3.6003 39.999999,39.999999 0 0 1 2.08979,-3.4086 39.999999,39.999999 0 0 1 2.42001,-3.18325 39.999999,39.999999 0 0 1 2.72541,-2.92539 39.999999,39.999999 0 0 1 3.00395,-2.63861 39.999999,39.999999 0 0 1 3.252,-2.32596 39.999999,39.999999 0 0 1 3.46852,-1.98956 39.999999,39.999999 0 0 1 3.64939,-1.63295 39.999999,39.999999 0 0 1 3.79461,-1.26093 39.999999,39.999999 0 0 1 3.90105,-0.8759 39.999999,39.999999 0 0 1 3.96926,-0.48162 39.999999,39.999999 0 0 1 2.82929,-0.10025 z"
         id="path4662"
         inkscape:connector-curvature="0" />
      <ellipse
         ry="73.231857"
         rx="69.490082"
         cy="-102.61454"
         cx="187.25859"
         id="ellipse4717"
         style="opacity:0;fill:#000000;fill-opacity:1;stroke:#0000d4;stroke-width:8.89700031;stroke-linecap:round;stroke-linejoin:round;stroke-miterlimit:10;stroke-dasharray:none;stroke-opacity:0.67146283;paint-order:stroke fill markers" />
      <path
         style="opacity:1;fill:#000000;fill-opacity:1;fill-rule:nonzero;stroke-width:9.04205704;stroke-linecap:round;stroke-linejoin:round;stroke-miterlimit:10;stroke-dasharray:none;paint-order:stroke fill markers"
         d="m 188.13017,-174.8224 a 72.5,72.5 0 0 0 -72.49996,72.50016 72.5,72.5 0 0 0 72.49996,72.49956 72.5,72.5 0 0 0 72.49996,-72.49956 72.5,72.5 0 0 0 -72.49996,-72.50016 z m 0,32.5 a 39.999999,39.999999 0 0 1 3.99357,0.2 39.999999,39.999999 0 0 1 3.95324,0.59737 39.999999,39.999999 0 0 1 3.87419,0.9891 39.999999,39.999999 0 0 1 3.75584,1.37096 39.999999,39.999999 0 0 1 3.60029,1.73942 39.999999,39.999999 0 0 1 3.40858,2.08982 39.999999,39.999999 0 0 1 3.18325,2.42001 39.999999,39.999999 0 0 1 2.92542,2.72539 39.999999,39.999999 0 0 1 2.63911,3.00344 39.999999,39.999999 0 0 1 2.32545,3.25253 39.999999,39.999999 0 0 1 1.98954,3.468 39.999999,39.999999 0 0 1 1.63348,3.6499 39.999999,39.999999 0 0 1 1.2604,3.7941 39.999999,39.999999 0 0 1 0.8759,3.90157 39.999999,39.999999 0 0 1 0.48165,3.96925 39.999999,39.999999 0 0 1 0.10025,2.8293 39.999999,39.999999 0 0 1 -0.2,3.993527 39.999999,39.999999 0 0 1 -0.59738,3.953219 39.999999,39.999999 0 0 1 -0.98909,3.874169 39.999999,39.999999 0 0 1 -1.37096,3.755816 39.999999,39.999999 0 0 1 -1.73945,3.600272 39.999999,39.999999 0 0 1 -2.08979,3.408579 39.999999,39.999999 0 0 1 -2.41948,3.182712 39.999999,39.999999 0 0 1 -2.72542,2.925905 39.999999,39.999999 0 0 1 -3.00395,2.638595 39.999999,39.999999 0 0 1 -3.25252,2.325935 39.999999,39.999999 0 0 1 -3.468,1.989528 39.999999,39.999999 0 0 1 -3.6494,1.632971 39.999999,39.999999 0 0 1 -3.7946,1.260894 39.999999,39.999999 0 0 1 -3.90104,0.875394 39.999999,39.999999 0 0 1 -3.96928,0.482147 39.999999,39.999999 0 0 1 -2.8298,0.10025 39.999999,39.999999 0 0 1 -3.99304,-0.199967 39.999999,39.999999 0 0 1 -3.95375,-0.597407 39.999999,39.999999 0 0 1 -3.87368,-0.989054 39.999999,39.999999 0 0 1 -3.75584,-1.371494 39.999999,39.999999 0 0 1 -3.60029,-1.738908 39.999999,39.999999 0 0 1 -3.4091,-2.089771 39.999999,39.999999 0 0 1 -3.18276,-2.419995 39.999999,39.999999 0 0 1 -2.92539,-2.725405 39.999999,39.999999 0 0 1 -2.63911,-3.003932 39.999999,39.999999 0 0 1 -2.32595,-3.251982 39.999999,39.999999 0 0 1 -1.98904,-3.468499 39.999999,39.999999 0 0 1 -1.63348,-3.649382 39.999999,39.999999 0 0 1 -1.26092,-3.794046 39.999999,39.999999 0 0 1 -0.8754,-3.901559 39.999999,39.999999 0 0 1 -0.48213,-3.969249 39.999999,39.999999 0 0 1 -0.0998,-2.829263 39.999999,39.999999 0 0 1 0.19947,-3.99357 39.999999,39.999999 0 0 1 0.59791,-3.95325 39.999999,39.999999 0 0 1 0.98909,-3.87418 39.999999,39.999999 0 0 1 1.37096,-3.75584 39.999999,39.999999 0 0 1 1.73893,-3.6003 39.999999,39.999999 0 0 1 2.08978,-3.40857 39.999999,39.999999 0 0 1 2.42001,-3.18328 39.999999,39.999999 0 0 1 2.72542,-2.92539 39.999999,39.999999 0 0 1 3.00395,-2.63861 39.999999,39.999999 0 0 1 3.25199,-2.32596 39.999999,39.999999 0 0 1 3.46853,-1.98953 39.999999,39.999999 0 0 1 3.6494,-1.63298 39.999999,39.999999 0 0 1 3.7946,-1.2609 39.999999,39.999999 0 0 1 3.90104,-0.87593 39.999999,39.999999 0 0 1 3.96928,-0.48162 39.999999,39.999999 0 0 1 2.82927,-0.10025 z"
         id="ellipse4733"
         inkscape:connector-curvature="0" />
      <rect
         style="opacity:1;fill:#000000;fill-opacity:1;fill-rule:nonzero;stroke:#000000;stroke-width:2.58022857;stroke-linecap:round;stroke-linejoin:round;stroke-miterlimit:10;stroke-dasharray:none;stroke-opacity:1;paint-order:stroke fill markers"
         id="rect4926"
         width="10.343669"
         height="36.202843"
         x="1.6805477"
         y="-332.89865"
         ry="0"
         transform="rotate(-72)" />
      <rect
         style="opacity:1;fill:#000000;fill-opacity:1;fill-rule:nonzero;stroke:#000000;stroke-width:2.58022857;stroke-linecap:round;stroke-linejoin:round;stroke-miterlimit:10;stroke-dasharray:none;stroke-opacity:1;paint-order:stroke fill markers"
         id="rect4926-7"
         width="10.343669"
         height="36.202843"
         x="272.35349"
         y="-126.29101"
         ry="0"
         transform="rotate(-144)" />
      <rect
         style="opacity:1;fill:#000000;fill-opacity:1;fill-rule:nonzero;stroke:#000000;stroke-width:2.58022857;stroke-linecap:round;stroke-linejoin:round;stroke-miterlimit:10;stroke-dasharray:none;stroke-opacity:1;paint-order:stroke fill markers"
         id="rect4926-1"
         width="10.343669"
         height="36.202843"
         x="159.496"
         y="194.98282"
         ry="0"
         transform="rotate(144)" />
      <rect
         style="opacity:1;fill:#000000;fill-opacity:1;fill-rule:nonzero;stroke:#000000;stroke-width:2.58022857;stroke-linecap:round;stroke-linejoin:round;stroke-miterlimit:10;stroke-dasharray:none;stroke-opacity:1;paint-order:stroke fill markers"
         id="rect4926-76"
         width="10.343669"
         height="36.202843"
         x="-180.92728"
         y="186.92409"
         ry="0"
         transform="rotate(72)" />
      <rect
         style="opacity:1;fill:#000000;fill-opacity:1;fill-rule:nonzero;stroke:#000000;stroke-width:2.58022857;stroke-linecap:round;stroke-linejoin:round;stroke-miterlimit:10;stroke-dasharray:none;stroke-opacity:1;paint-order:stroke fill markers"
         id="rect4926-70"
         width="10.343669"
         height="36.202843"
         x="-278.46231"
         y="-139.32439"
         ry="0" />
      <rect
         transform="rotate(-72)"
         ry="0"
         y="103.7993"
         x="149.50845"
         height="36.202843"
         width="10.343669"
         id="rect4971"
         style="opacity:1;fill:#000000;fill-opacity:1;fill-rule:nonzero;stroke:#000000;stroke-width:2.58022857;stroke-linecap:round;stroke-linejoin:round;stroke-miterlimit:10;stroke-dasharray:none;stroke-opacity:1;paint-order:stroke fill markers" />
      <rect
         transform="rotate(-144)"
         ry="0"
         y="149.25233"
         x="-97.295357"
         height="36.202843"
         width="10.343669"
         id="rect4973"
         style="opacity:1;fill:#000000;fill-opacity:1;fill-rule:nonzero;stroke:#000000;stroke-width:2.58022857;stroke-linecap:round;stroke-linejoin:round;stroke-miterlimit:10;stroke-dasharray:none;stroke-opacity:1;paint-order:stroke fill markers" />
      <rect
         transform="rotate(144)"
         ry="0"
         y="-71.427879"
         x="-216.78696"
         height="36.202843"
         width="10.343669"
         id="rect4975"
         style="opacity:1;fill:#000000;fill-opacity:1;fill-rule:nonzero;stroke:#000000;stroke-width:2.58022857;stroke-linecap:round;stroke-linejoin:round;stroke-miterlimit:10;stroke-dasharray:none;stroke-opacity:1;paint-order:stroke fill markers" />
      <rect
         transform="rotate(72)"
         ry="0"
         y="-253.26813"
         x="-43.834087"
         height="36.202843"
         width="10.343669"
         id="rect4977"
         style="opacity:1;fill:#000000;fill-opacity:1;fill-rule:nonzero;stroke:#000000;stroke-width:2.58022857;stroke-linecap:round;stroke-linejoin:round;stroke-miterlimit:10;stroke-dasharray:none;stroke-opacity:1;paint-order:stroke fill markers" />
      <rect
         ry="0"
         y="-144.96774"
         x="182.54893"
         height="36.202843"
         width="10.343669"
         id="rect4979"
         style="opacity:1;fill:#000000;fill-opacity:1;fill-rule:nonzero;stroke:#000000;stroke-width:2.58022857;stroke-linecap:round;stroke-linejoin:round;stroke-miterlimit:10;stroke-dasharray:none;stroke-opacity:1;paint-order:stroke fill markers" />
    </g>
    <ellipse
       style="opacity:0;fill:none;fill-opacity:1;stroke-width:10;stroke-linecap:round;stroke-linejoin:round;stroke-miterlimit:10;stroke-dasharray:none"
       id="path4602"
       cx="-278.75241"
       cy="-116.51276"
       rx="42.228584"
       ry="34.210499" />
    <ellipse
       style="opacity:0;fill:none;fill-opacity:1;stroke-width:10;stroke-linecap:round;stroke-linejoin:round;stroke-miterlimit:10;stroke-dasharray:none"
       id="path4604"
       cx="-302.80667"
       cy="-89.785431"
       rx="42.763123"
       ry="31.003265" />
    <ellipse
       style="opacity:0;fill:none;fill-opacity:1;stroke-width:10;stroke-linecap:round;stroke-linejoin:round;stroke-miterlimit:10;stroke-dasharray:none"
       id="path4606"
       cx="-249.88731"
       cy="-79.094475"
       rx="80.715393"
       ry="56.66114" />
    <ellipse
       style="opacity:0;fill:none;fill-opacity:1;stroke-width:10;stroke-linecap:round;stroke-linejoin:round;stroke-miterlimit:10;stroke-dasharray:none"
       id="path4608"
       cx="-257.9054"
       cy="-127.73801"
       rx="7.4835467"
       ry="5.8799295" />
    <ellipse
       style="opacity:0;fill:none;fill-opacity:1;stroke-width:10;stroke-linecap:round;stroke-linejoin:round;stroke-miterlimit:10;stroke-dasharray:none"
       id="path4610"
       cx="-242.40376"
       cy="-91.389091"
       rx="26.192413"
       ry="29.399649" />
  </g>
</svg>
