<?xml version="1.0" encoding="UTF-8" standalone="no"?>
<!-- Created with Inkscape (http://www.inkscape.org/) -->

<svg
   xmlns:dc="http://purl.org/dc/elements/1.1/"
   xmlns:cc="http://creativecommons.org/ns#"
   xmlns:rdf="http://www.w3.org/1999/02/22-rdf-syntax-ns#"
   xmlns:svg="http://www.w3.org/2000/svg"
   xmlns="http://www.w3.org/2000/svg"
   xmlns:xlink="http://www.w3.org/1999/xlink"
   xmlns:sodipodi="http://sodipodi.sourceforge.net/DTD/sodipodi-0.dtd"
   xmlns:inkscape="http://www.inkscape.org/namespaces/inkscape"
   sodipodi:docname="inspired_logo_2.svg"
   inkscape:version="0.92.4 (5da689c313, 2019-01-14)"
   id="svg45957"
   version="1.1"
   viewBox="0 0 232.63572 142.60434"
   height="142.60434mm"
   width="232.63573mm">
  <metadata
     id="metadata4690">
    <rdf:RDF>
      <cc:Work
         rdf:about="">
        <dc:format>image/svg+xml</dc:format>
        <dc:type
           rdf:resource="http://purl.org/dc/dcmitype/StillImage" />
        <dc:title />
      </cc:Work>
    </rdf:RDF>
  </metadata>
  <sodipodi:namedview
     id="namedview45959"
     pagecolor="#ffffff"
     bordercolor="#666666"
     borderopacity="1.0"
     inkscape:pageshadow="2"
     inkscape:pageopacity="0.0"
     inkscape:pagecheckerboard="0"
     inkscape:document-units="cm"
     showgrid="true"
     inkscape:zoom="1.0482005"
     inkscape:cx="595.07868"
     inkscape:cy="225.2961"
     inkscape:window-width="1920"
     inkscape:window-height="1017"
     inkscape:window-x="-8"
     inkscape:window-y="-8"
     inkscape:window-maximized="1"
     inkscape:current-layer="g34068"
     inkscape:snap-grids="false"
     inkscape:snap-intersection-paths="true"
     inkscape:object-paths="true"
     inkscape:snap-smooth-nodes="true"
     inkscape:snap-midpoints="true"
     inkscape:snap-bbox="true"
     inkscape:bbox-nodes="true"
     inkscape:snap-nodes="true"
     inkscape:snap-others="true"
     inkscape:snap-global="true"
     fit-margin-top="0"
     fit-margin-left="0"
     fit-margin-right="0"
     fit-margin-bottom="0"
     units="mm"
     showguides="false">
    <inkscape:grid
       type="xygrid"
       id="grid64160"
       originx="0.28301863"
       originy="-0.23082883" />
  </sodipodi:namedview>
  <defs
     id="defs45954">
    <linearGradient
       id="linearGradient13622"
       inkscape:swatch="gradient">
      <stop
         style="stop-color:#0000d6;stop-opacity:1;"
         offset="0"
         id="stop13618" />
      <stop
         style="stop-color:#0000ed;stop-opacity:0;"
         offset="1"
         id="stop13620" />
    </linearGradient>
    <inkscape:path-effect
       effect="bspline"
       id="path-effect7648"
       is_visible="true"
       lpeversion="1"
       weight="33.333333"
       steps="2"
       helper_size="0"
       apply_no_weight="true"
       apply_with_weight="true"
       only_selected="false" />
    <inkscape:path-effect
       effect="bspline"
       id="path-effect7644"
       is_visible="true"
       lpeversion="1"
       weight="33.333333"
       steps="2"
       helper_size="0"
       apply_no_weight="true"
       apply_with_weight="true"
       only_selected="false" />
    <inkscape:path-effect
       effect="bspline"
       id="path-effect7478"
       is_visible="true"
       lpeversion="1"
       weight="33.333333"
       steps="2"
       helper_size="0"
       apply_no_weight="true"
       apply_with_weight="true"
       only_selected="false" />
    <marker
       style="overflow:visible"
       id="Arrow1Lstart"
       refX="0"
       refY="0"
       orient="auto"
       inkscape:stockid="Arrow1Lstart"
       inkscape:isstock="true">
      <path
         transform="matrix(0.8,0,0,0.8,10,0)"
         style="fill:context-stroke;fill-rule:evenodd;stroke:context-stroke;stroke-width:1pt"
         d="M 0,0 5,-5 -12.5,0 5,5 Z"
         id="path51851" />
    </marker>
    <inkscape:path-effect
       effect="bspline"
       id="path-effect51605"
       is_visible="true"
       lpeversion="1"
       weight="33.333333"
       steps="2"
       helper_size="0"
       apply_no_weight="true"
       apply_with_weight="true"
       only_selected="false" />
    <inkscape:path-effect
       effect="bspline"
       id="path-effect46359"
       is_visible="true"
       lpeversion="1"
       weight="33.333333"
       steps="2"
       helper_size="0"
       apply_no_weight="true"
       apply_with_weight="true"
       only_selected="false" />
    <inkscape:path-effect
       effect="bspline"
       id="path-effect46273"
       is_visible="true"
       lpeversion="1"
       weight="33.333333"
       steps="2"
       helper_size="0"
       apply_no_weight="true"
       apply_with_weight="true"
       only_selected="false" />
    <linearGradient
       inkscape:collect="always"
       xlink:href="#linearGradient13622"
       id="linearGradient34167"
       gradientUnits="userSpaceOnUse"
       gradientTransform="translate(0.72628762,-0.68108638)"
       x1="26.561253"
       y1="-89.999428"
       x2="192.68204"
       y2="-89.999428" />
  </defs>
  <g
     inkscape:label="Layer 1"
     inkscape:groupmode="layer"
     id="layer1"
     transform="translate(11.290163,199.95243)">
    <rect
       style="fill:#0a76f8;fill-opacity:1;stroke:#000000;stroke-width:1.56906;stroke-miterlimit:4;stroke-dasharray:none;stroke-opacity:1"
       id="rect46055"
       width="171.4201"
       height="66.113617"
       x="19.574308"
       y="-141.36938" />
    <path
       id="path50940"
       style="fill:#0a76f8;fill-opacity:1;stroke:#000000;stroke-width:1.7;stroke-linecap:butt;stroke-linejoin:miter;stroke-miterlimit:4;stroke-dasharray:none;stroke-opacity:1"
       d="m 35.009316,-146.99658 -7.88933,3.99266 h -8.05901 l 10.90936,-3.67265 z m 145.090124,0.32001 10.90936,3.67265 h -8.05901 l -7.88933,-3.99266 z" />
    <g
       id="g51311"
       transform="translate(-2.992571,4.1430817)"
       style="fill:none;fill-opacity:1">
      <path
         id="path50642"
         style="fill:#0a76f8;fill-opacity:1;stroke:#000000;stroke-width:5.66929;stroke-linecap:round;stroke-linejoin:round;stroke-miterlimit:4;stroke-dasharray:none;stroke-opacity:1"
         d="m 219.1875,-73.1875 c -19.481,0.14589 -34.93201,1.635497 -47.07812,4.306641 -41.71291,9.173367 -44.46077,32.279268 -50.16797,55.861328 C 109.90958,36.696223 96.193359,126.32031 96.193359,126.32031 l 18.957031,-3.41015 h 526.91602 l 18.95703,3.41015 c 0,0 -13.71814,-89.624087 -25.75,-139.339841 -5.70716,-23.58206 -8.4551,-46.687961 -50.16797,-55.861328 -12.14616,-2.671144 -27.59603,-4.161349 -47.38477,-4.138672 z m 30.69727,38.193359 257.13867,0.103516 c 15.97459,-0.01126 28.44695,0.909839 38.25195,2.566406 33.67295,5.688907 35.89092,20.017961 40.49805,34.6425784 9.71278,30.8317226 20.78711,86.4140626 20.78711,86.4140626 H 150.59766 c 0,0 11.07245,-55.58234 20.78515,-86.4140626 4.60717,-14.6246174 6.8271,-28.9536714 40.5,-34.6425784 9.80504,-1.656567 22.27587,-2.576567 38.00196,-2.669922 z"
         transform="matrix(0.26458333,0,0,0.26458333,8.013808,-183.98132)" />
    </g>
    <g
       id="g62234"
       transform="translate(-46.884482,-22.650559)">
      <path
         style="fill:#0a76f8;fill-opacity:1;stroke:#000000;stroke-width:1.8;stroke-linecap:butt;stroke-linejoin:miter;stroke-miterlimit:4;stroke-dasharray:none;stroke-opacity:1"
         d="m 50.600087,-105.93883 c -4.763418,0.0262 -8.996511,0.0785 -11.259272,2.62546 -2.26276,2.54694 -2.555766,7.589806 -2.706401,13.296729 -0.150634,5.706923 -0.15892,12.077058 -0.120991,17.467261 0.03793,5.390204 0.122063,9.799646 0.206202,14.209368 0,0 29.225833,0 29.225833,0 0,0 0,-47.624998 0,-47.624998 -5.291667,0 -10.581953,0 -15.345371,0.0262 z"
         id="path46355"
         inkscape:original-d="m 50.070458,-105.96501 c -4.233786,0.0526 -8.466879,0.10497 -12.699474,0.15704 -0.29265,5.04156 -0.585656,10.084422 -0.878916,15.126832 -0.008,6.37142 -0.01631,12.741555 -0.02486,19.111959 0.0844,4.409998 0.252417,13.229167 0.252417,13.229167 h 29.225833 v -47.624998 c 0,0 -10.581953,2.6e-4 -15.875,0 z"
         inkscape:path-effect="#path-effect46359"
         sodipodi:nodetypes="cccccccc" />
      <path
         style="fill:#0a76f8;fill-opacity:1;stroke:#000000;stroke-width:1.8;stroke-linecap:butt;stroke-linejoin:miter;stroke-miterlimit:4;stroke-dasharray:none;stroke-opacity:1"
         d="m 50.600087,-105.93883 c -4.763418,0.0262 -8.996511,0.0785 -11.259272,2.62546 -2.26276,2.54694 -2.555766,7.589806 -2.706401,13.296729 -0.150634,5.706923 -0.15892,12.077058 -0.120991,17.467261 0.03793,5.390204 0.122063,9.799646 0.206202,14.209368 0,0 29.225833,0 29.225833,0 0,0 0,-47.624998 0,-47.624998 -5.291667,0 -10.581953,0 -15.345371,0.0262 z"
         id="path7474"
         inkscape:original-d="m 50.070458,-105.96501 c -4.233786,0.0526 -8.466879,0.10497 -12.699474,0.15704 -0.29265,5.04156 -0.585656,10.084422 -0.878916,15.126832 -0.008,6.37142 -0.01631,12.741555 -0.02486,19.111959 0.0844,4.409998 0.252417,13.229167 0.252417,13.229167 h 29.225833 v -47.624998 c 0,0 -10.581953,2.6e-4 -15.875,0 z"
         inkscape:path-effect="#path-effect7478"
         sodipodi:nodetypes="cccccccc" />
    </g>
    <g
       id="g62256"
       transform="translate(-2.1631655,-10.096673)">
      <rect
         style="fill:#0a0a0a;fill-opacity:1;stroke:#000000;stroke-width:1.99234;stroke-linecap:square;stroke-linejoin:round;stroke-miterlimit:3;stroke-dasharray:none;stroke-opacity:1"
         id="rect62370"
         width="26.263693"
         height="22.646301"
         x="-4.5262165"
         y="-70.893898" />
      <rect
         style="fill:#0a0a0a;fill-opacity:1;stroke:#000000;stroke-width:1.99234;stroke-linecap:square;stroke-linejoin:round;stroke-miterlimit:3;stroke-dasharray:none;stroke-opacity:1"
         id="rect62828"
         width="26.263693"
         height="22.646301"
         x="193.15758"
         y="-70.893898" />
    </g>
    <g
       id="g34068"
       transform="translate(193.5147,48.610631)">
      <path
         style="opacity:1;fill:#000000;fill-opacity:0.98167539;fill-rule:nonzero;stroke:#000000;stroke-width:0.1751667;stroke-linecap:square;stroke-linejoin:miter;stroke-miterlimit:91.40000153;stroke-dasharray:none;stroke-opacity:1;paint-order:markers fill stroke"
         d="m -27.872105,-159.75194 c -0.03516,-1.33083 -0.07711,-1.6095 -0.315068,-2.09322 -0.367796,-0.74764 -0.984197,-1.15152 -1.853419,-1.21438 -0.622826,-0.0451 -0.740215,-0.006 -2.132751,0.70076 -1.012133,0.51405 -1.504246,0.70833 -1.571348,0.62037 -0.222791,-0.29207 -2.220174,-3.87285 -2.220174,-3.98018 0,-0.0642 0.482291,-0.40549 1.071755,-0.75847 0.589467,-0.35297 1.238567,-0.81562 1.442447,-1.02809 0.723271,-0.7538 0.912484,-1.71145 0.512244,-2.59257 -0.256377,-0.56442 -0.65329,-0.91103 -1.952029,-1.70467 -0.542309,-0.3314 -1.009073,-0.66262 -1.037256,-0.73607 -0.0412,-0.10734 0.580898,-1.25288 2.239133,-4.12303 0.02545,-0.0441 0.533205,0.20105 1.128348,0.54467 1.293503,0.7468 1.91212,0.92487 2.822054,0.81227 0.586279,-0.0725 0.725656,-0.14327 1.147922,-0.58252 0.593484,-0.61736 0.735967,-1.1903 0.735967,-2.95942 v -1.26881 h 2.491106 2.491108 v 1.42012 c 0,1.54333 0.08665,2.00357 0.48728,2.58826 0.817693,1.19334 2.17891,1.14801 4.450102,-0.14818 l 0.824157,-0.47037 1.145555,1.97963 c 0.630057,1.08881 1.161342,2.04111 1.180635,2.11627 0.01929,0.0752 -0.371754,0.38254 -0.868991,0.6831 -1.796123,1.0857 -2.352387,1.74298 -2.352387,2.77957 0,1.09162 0.493763,1.70301 2.191164,2.71317 0.579189,0.34468 1.053069,0.67454 1.053069,0.73302 0,0.13787 -2.191257,3.89219 -2.317137,3.96998 -0.05266,0.0325 -0.701745,-0.23674 -1.442421,-0.59843 -1.631532,-0.79669 -2.269446,-0.89642 -3.075158,-0.48079 -0.355,0.18313 -0.630793,0.44906 -0.86899,0.8379 -0.337003,0.55013 -0.350236,0.62447 -0.386669,2.17248 l -0.03772,1.60285 h -2.470981 -2.470982 z m 4.500043,-5.35912 c 2.25004,-1.10918 3.189407,-3.86281 2.070597,-6.0697 -0.371623,-0.73303 -1.354342,-1.68447 -2.136685,-2.06868 -0.590346,-0.28992 -0.768368,-0.31946 -1.925024,-0.31946 -1.141219,0 -1.344027,0.0325 -1.939101,0.31147 -0.891928,0.41802 -1.751735,1.30059 -2.209102,2.2676 -0.332951,0.70398 -0.368682,0.88391 -0.362145,1.82382 0.0093,1.3337 0.302491,2.12625 1.115921,3.01627 1.063972,1.16416 2.104125,1.59573 3.626159,1.50457 0.759096,-0.0454 1.077646,-0.12983 1.75938,-0.46589 z"
         id="path5241"
         inkscape:connector-curvature="0" />
      <path
         style="opacity:1;fill:#000000;fill-opacity:0.98167539;fill-rule:nonzero;stroke:#000000;stroke-width:0.1751667;stroke-linecap:square;stroke-linejoin:miter;stroke-miterlimit:91.40000153;stroke-dasharray:none;stroke-opacity:1;paint-order:markers fill stroke"
         d="m -28.66534,-145.28406 v -9.42939 l -1.013823,-0.31571 c -4.93139,-1.5357 -8.687178,-5.45289 -9.982042,-10.41106 -0.733652,-2.80922 -0.588667,-6.01608 0.396314,-8.76594 1.442357,-4.02676 4.820095,-7.41399 8.838316,-8.86315 2.266937,-0.81756 5.131256,-1.08721 7.442923,-0.70066 3.147702,0.52633 5.781399,1.88752 8.059156,4.16528 2.86844,2.86844 4.334173,6.39859 4.334173,10.43868 0,2.38553 -0.463712,4.40904 -1.486909,6.48847 -1.810858,3.68019 -5.03904,6.43343 -8.969951,7.65026 l -1.013823,0.31383 v 9.42939 9.42937 h -3.302168 -3.302166 z m 6.716143,-11.24542 c 2.146968,-0.5985 3.991839,-1.64616 5.593646,-3.17652 2.4496,-2.34034 3.79221,-5.20444 4.085742,-8.71587 0.140868,-1.68513 -0.285519,-4.09961 -1.040919,-5.89437 -1.064004,-2.52796 -3.152571,-4.86054 -5.580503,-6.23249 -6.59726,-3.7279 -14.903434,-1.13216 -18.240639,5.70034 -0.314053,0.64299 -0.711303,1.68924 -0.88277,2.325 -0.283741,1.05203 -0.312378,1.34861 -0.318613,3.29944 -0.006,1.89375 0.02485,2.26349 0.265293,3.17311 1.138626,4.30767 4.250854,7.76248 8.301899,9.21574 1.542836,0.55346 2.639522,0.70504 4.750484,0.65656 1.685299,-0.0387 2.128065,-0.0894 3.06638,-0.35094 z"
         id="path5243"
         inkscape:connector-curvature="0" />
      <text
         xml:space="preserve"
         style="font-style:normal;font-weight:normal;font-size:10.17475224px;line-height:1.25;font-family:sans-serif;letter-spacing:-0.10852908px;word-spacing:0.53320783px;fill:#000000;fill-opacity:1;stroke:none;stroke-width:0.25436887"
         x="-217.07358"
         y="-103.20751"
         id="text5247"
         transform="scale(0.75260821,1.3287126)"><tspan
           sodipodi:role="line"
           id="tspan5245"
           x="-217.07358"
           y="-103.20751"
           style="font-style:normal;font-variant:normal;font-weight:bold;font-stretch:normal;font-size:48.8388176px;line-height:1.25;font-family:'Alfa Slab One';-inkscape-font-specification:'Alfa Slab One Bold';letter-spacing:4.18570852px;word-spacing:1.07113409px;stroke-width:0.25436887"
           dy="1.1503111"
           rotate="0 0 0 0 0 0">Autaf</tspan></text>
    </g>
    <text
       xml:space="preserve"
       style="font-size:61.19229889px;line-height:2.95000005;font-family:'Segoe UI';-inkscape-font-specification:'Segoe UI';letter-spacing:-0.316908px;word-spacing:0.316908px;fill:#666666;fill-opacity:1;stroke:url(#linearGradient34167);stroke-width:1.52980006;stroke-opacity:1"
       x="27.93294"
       y="-69.630714"
       id="text128631"
       transform="scale(0.81025629,1.2341774)"><tspan
         sodipodi:role="line"
         id="tspan128629"
         style="font-style:normal;font-variant:normal;font-weight:bold;font-stretch:normal;font-family:Consolas;-inkscape-font-specification:'Consolas Bold';fill:#666666;fill-opacity:1;stroke:url(#linearGradient34167);stroke-width:1.52980006;stroke-opacity:1"
         x="27.93294"
         y="37.501976"
         rotate="0" /></text>
    <g
       id="g7640"
       transform="matrix(-1,0,0,1,256.93987,-22.650559)">
      <path
         style="fill:#0a76f8;fill-opacity:1;stroke:#000000;stroke-width:1.8;stroke-linecap:butt;stroke-linejoin:miter;stroke-miterlimit:4;stroke-dasharray:none;stroke-opacity:1"
         d="m 50.600087,-105.93883 c -4.763418,0.0262 -8.996511,0.0785 -11.259272,2.62546 -2.26276,2.54694 -2.555766,7.589806 -2.706401,13.296729 -0.150634,5.706923 -0.15892,12.077058 -0.120991,17.467261 0.03793,5.390204 0.122063,9.799646 0.206202,14.209368 0,0 29.225833,0 29.225833,0 0,0 0,-47.624998 0,-47.624998 -5.291667,0 -10.581953,0 -15.345371,0.0262 z"
         id="path7636"
         inkscape:original-d="m 50.070458,-105.96501 c -4.233786,0.0526 -8.466879,0.10497 -12.699474,0.15704 -0.29265,5.04156 -0.585656,10.084422 -0.878916,15.126832 -0.008,6.37142 -0.01631,12.741555 -0.02486,19.111959 0.0844,4.409998 0.252417,13.229167 0.252417,13.229167 h 29.225833 v -47.624998 c 0,0 -10.581953,2.6e-4 -15.875,0 z"
         inkscape:path-effect="#path-effect7644"
         sodipodi:nodetypes="cccccccc" />
      <path
         style="fill:#0a76f8;fill-opacity:1;stroke:#000000;stroke-width:1.8;stroke-linecap:butt;stroke-linejoin:miter;stroke-miterlimit:4;stroke-dasharray:none;stroke-opacity:1"
         d="m 50.600087,-105.93883 c -4.763418,0.0262 -8.996511,0.0785 -11.259272,2.62546 -2.26276,2.54694 -2.555766,7.589806 -2.706401,13.296729 -0.150634,5.706923 -0.15892,12.077058 -0.120991,17.467261 0.03793,5.390204 0.122063,9.799646 0.206202,14.209368 0,0 29.225833,0 29.225833,0 0,0 0,-47.624998 0,-47.624998 -5.291667,0 -10.581953,0 -15.345371,0.0262 z"
         id="path7638"
         inkscape:original-d="m 50.070458,-105.96501 c -4.233786,0.0526 -8.466879,0.10497 -12.699474,0.15704 -0.29265,5.04156 -0.585656,10.084422 -0.878916,15.126832 -0.008,6.37142 -0.01631,12.741555 -0.02486,19.111959 0.0844,4.409998 0.252417,13.229167 0.252417,13.229167 h 29.225833 v -47.624998 c 0,0 -10.581953,2.6e-4 -15.875,0 z"
         inkscape:path-effect="#path-effect7648"
         sodipodi:nodetypes="cccccccc" />
    </g>
    <rect
       style="fill:#babab9;fill-opacity:1;stroke:#030103;stroke-width:1.8;stroke-miterlimit:4;stroke-dasharray:none;stroke-opacity:1"
       id="rect26120"
       width="203.44617"
       height="17.415043"
       x="3.0479441"
       y="-83.240311" />
    <path
       style="fill:#0a0a0a;fill-opacity:1;stroke:#030103;stroke-width:10.8057;stroke-miterlimit:4;stroke-dasharray:none;stroke-opacity:1"
       d="m 161.7057,211.62942 c 7.34593,-3.70715 13.49933,-7.11912 13.67423,-7.58215 0.18273,-0.48375 111.78371,-0.83141 262.35439,-0.81729 l 262.03638,0.0246 14.78725,7.5694 14.78725,7.56941 -290.49786,-0.0118 -290.49786,-0.0118 z"
       id="path27250"
       transform="matrix(0.26458333,0,0,0.26458333,-11.007145,-200.18326)" />
    <circle
       style="fill:#cccccc;fill-opacity:1;stroke:#030103;stroke-width:0.899999;stroke-miterlimit:4;stroke-dasharray:none;stroke-opacity:1"
       id="path28357"
       cx="14.060976"
       cy="-101.99316"
       r="5" />
    <circle
       style="fill:#cccccc;fill-opacity:1;stroke:#030103;stroke-width:0.899999;stroke-miterlimit:4;stroke-dasharray:none;stroke-opacity:1"
       id="circle28483"
       cx="195.99442"
       cy="-101.99316"
       r="5" />
    <circle
       style="fill:#ff0000;fill-opacity:1;stroke:#babab9;stroke-width:1.371;stroke-miterlimit:4;stroke-dasharray:none;stroke-opacity:1"
       id="circle28525"
       cx="3.0541022"
       cy="-90.986282"
       r="5.2212243" />
    <circle
       style="fill:#ff0000;fill-opacity:1;stroke:#babab9;stroke-width:1.371;stroke-miterlimit:4;stroke-dasharray:none;stroke-opacity:1"
       id="circle29027"
       cx="207.00128"
       cy="-90.986282"
       r="5.2212243" />
    <rect
       style="fill:#000000;fill-opacity:0;stroke:#babab9;stroke-width:1.8;stroke-miterlimit:4;stroke-dasharray:none;stroke-opacity:1"
       id="rect34288"
       width="27.261005"
       height="32.561756"
       x="-140.52753"
       y="-207.27252" />
  </g>
</svg>
