<?xml version="1.0" encoding="UTF-8" standalone="no"?>
<!-- Created with Inkscape (http://www.inkscape.org/) -->

<svg
   xmlns:dc="http://purl.org/dc/elements/1.1/"
   xmlns:cc="http://creativecommons.org/ns#"
   xmlns:rdf="http://www.w3.org/1999/02/22-rdf-syntax-ns#"
   xmlns:svg="http://www.w3.org/2000/svg"
   xmlns="http://www.w3.org/2000/svg"
   xmlns:sodipodi="http://sodipodi.sourceforge.net/DTD/sodipodi-0.dtd"
   xmlns:inkscape="http://www.inkscape.org/namespaces/inkscape"
   width="210mm"
   height="210mm"
   viewBox="0 0 210 210"
   version="1.1"
   id="svg5"
   inkscape:version="0.92.4 (5da689c313, 2019-01-14)"
   sodipodi:docname="favicon.ico.svg"
   inkscape:export-filename="C:\Users\Phil\Desktop\autafi\Autafi\front-end\public\bitmap.png"
   inkscape:export-xdpi="30.963808"
   inkscape:export-ydpi="30.963808">
  <metadata
     id="metadata5187">
    <rdf:RDF>
      <cc:Work
         rdf:about="">
        <dc:format>image/svg+xml</dc:format>
        <dc:type
           rdf:resource="http://purl.org/dc/dcmitype/StillImage" />
        <dc:title></dc:title>
      </cc:Work>
    </rdf:RDF>
  </metadata>
  <sodipodi:namedview
     id="namedview7"
     pagecolor="#ffffff"
     bordercolor="#666666"
     borderopacity="1.0"
     inkscape:pageshadow="2"
     inkscape:pageopacity="0.0"
     inkscape:pagecheckerboard="true"
     inkscape:document-units="mm"
     showgrid="false"
     inkscape:zoom="0.74118967"
     inkscape:cx="484.45476"
     inkscape:cy="346.06526"
     inkscape:window-width="1920"
     inkscape:window-height="1017"
     inkscape:window-x="-8"
     inkscape:window-y="-8"
     inkscape:window-maximized="1"
     inkscape:current-layer="layer1" />
  <defs
     id="defs2" />
  <g
     inkscape:label="Layer 1"
     inkscape:groupmode="layer"
     id="layer1">
    <g
       id="g34068"
       transform="matrix(3.7830277,0,0,3.7830277,185.30018,711.83087)">
      <path
         style="fill:#666666;stroke:#000000;stroke-width:0.13775003;stroke-miterlimit:4;stroke-dasharray:none;stroke-opacity:1"
         d="m -23.195658,-159.78637 c 0,-0.98589 -0.0759,-1.81235 -0.207095,-2.254 -0.407087,-1.37085 -1.764022,-2.10264 -3.141786,-1.69436 -0.313963,0.0931 -1.176676,0.51116 -1.917159,0.92918 -0.740496,0.418 -1.365076,0.73666 -1.388005,0.70809 -0.109972,-0.13705 -2.835783,-4.9259 -2.835783,-4.98207 0,-0.0354 0.531278,-0.36269 1.180635,-0.72716 2.066192,-1.15978 2.670302,-1.87322 2.670302,-3.15353 0,-1.23188 -0.640953,-1.93771 -2.922581,-3.21832 -0.434946,-0.24412 -0.821794,-0.49399 -0.859651,-0.55524 -0.0379,-0.0613 0.231534,-0.62782 0.598641,-1.25905 0.367118,-0.63123 1.016949,-1.74761 1.444073,-2.48084 l 0.776599,-1.33316 1.478583,0.8518 c 1.452708,0.83687 1.496635,0.85178 2.51008,0.85178 1.218418,0 1.743192,-0.28534 2.234491,-1.215 0.259721,-0.49144 0.310057,-0.8419 0.35391,-2.46403 l 0.0511,-1.89106 h 2.94379 2.94377 v 1.79234 c 0,1.30663 0.05764,1.93041 0.212869,2.3018 0.662722,1.58609 2.135985,1.9828 3.985782,1.07323 0.527382,-0.2593 1.276734,-0.65881 1.665261,-0.88781 l 0.706406,-0.41634 1.2785719,2.22876 c 0.7032077,1.22583 1.3639133,2.363 1.4682263,2.52703 0.18235,0.28677 0.1337142,0.33098 -1.2637281,1.14775 -0.7993501,0.46723 -1.6299281,1.0637 -1.8457111,1.32551 -0.948519,1.15069 -0.839403,2.59501 0.271429,3.59327 0.229118,0.20588 0.9992878,0.71813 1.7115221,1.13832 l 1.2949557,0.76395 -1.3820396,2.3993 c -0.7601316,1.31962 -1.4274772,2.44562 -1.4830382,2.50223 -0.05553,0.0567 -0.716879,-0.23834 -1.469652,-0.65546 -1.585915,-0.87876 -2.230321,-1.08581 -3.013782,-0.96832 -0.853402,0.12803 -1.368179,0.51329 -1.774135,1.32793 -0.335405,0.67306 -0.362937,0.86188 -0.362937,2.48922 v 1.76094 h -2.956955 -2.956987 z m 5.099273,-6.5142 c 2.607626,-1.23161 3.692425,-4.30746 2.437469,-6.91126 -0.393225,-0.81591 -1.521317,-1.93441 -2.332839,-2.31305 -2.027575,-0.946 -4.477618,-0.50465 -5.952685,1.07232 -2.715612,2.90319 -1.386548,7.49974 2.467968,8.53544 0.226932,0.061 0.881515,0.0936 1.454629,0.0725 0.821679,-0.0303 1.228837,-0.12672 1.925458,-0.45579 z"
         id="path23102"
         inkscape:connector-curvature="0" />
      <circle
         style="fill:#23ffff;fill-opacity:0.10252099;stroke:#646464;stroke-width:2.05911922;stroke-miterlimit:4;stroke-dasharray:none;stroke-dashoffset:0;stroke-opacity:1;paint-order:normal"
         id="path23865"
         cx="-20.22826"
         cy="-170.95154"
         r="16.039919" />
      <path
         style="fill:#646464;fill-opacity:1;stroke:#bababb;stroke-width:0;stroke-linecap:square;stroke-miterlimit:4;stroke-dasharray:none;stroke-dashoffset:0;stroke-opacity:1;paint-order:markers stroke fill"
         d="m -24.075832,-143.77479 1.06e-4,-11.13681 h 3.847474 3.847485 l -6.4e-5,11.13681 -4.1e-5,11.13681 h -3.847538 -3.847558 z"
         id="path25971"
         inkscape:connector-curvature="0" />
      <path
         style="opacity:1;fill:#000000;fill-opacity:0.98167539;fill-rule:nonzero;stroke:#000000;stroke-width:0.15060134;stroke-linecap:square;stroke-linejoin:miter;stroke-miterlimit:91.40000153;stroke-dasharray:none;stroke-opacity:1;paint-order:markers fill stroke"
         d="m -24.027931,-143.50213 v -10.85437 l -0.42337,-0.10699 c -1.654976,-0.41824 -3.651664,-1.30518 -5.105347,-2.2678 -1.175074,-0.77812 -1.520546,-1.05923 -2.575607,-2.09575 -3.004563,-2.95176 -4.672514,-6.52618 -5.059316,-10.84213 -0.314508,-3.50928 0.672568,-7.42137 2.642391,-10.47262 2.117088,-3.27935 5.425686,-5.82855 9.074929,-6.99204 2.056365,-0.65564 2.657189,-0.74099 5.231748,-0.74319 2.052968,-0.002 2.465565,0.0253 3.353526,0.21923 1.444638,0.31564 2.70385,0.74612 3.995458,1.36593 8.2329824,3.95081 11.8692937,13.55916 8.3232041,21.99268 -1.9933467,4.7407 -6.2572611,8.46115 -11.2143491,9.785 l -0.672412,0.17958 v 10.84341 10.84341 h -3.785427 -3.785428 z m 6.227217,-12.61077 c 7.172423,-1.09216 12.6003053,-7.46343 12.6003053,-14.79031 0,-3.34499 -0.9648798,-6.27909 -2.9884957,-9.0877 -0.6265667,-0.86963 -2.2966666,-2.50443 -3.2624446,-3.19349 -6.285536,-4.48463 -14.881684,-3.50589 -20.050929,2.28294 -1.762732,1.97402 -3.059272,4.64429 -3.549965,7.31129 -0.238963,1.29882 -0.238963,3.98087 0,5.27968 1.237704,6.72714 6.874821,11.84024 13.614341,12.34876 1.143305,0.0862 2.428762,0.0328 3.637188,-0.15117 z"
         id="path5732"
         inkscape:connector-curvature="0" />
      <path
         style="opacity:1;fill:#000000;fill-opacity:0.98167539;fill-rule:nonzero;stroke:#000000;stroke-width:0.15060134;stroke-linecap:square;stroke-linejoin:miter;stroke-miterlimit:91.40000153;stroke-dasharray:none;stroke-opacity:1;paint-order:markers fill stroke"
         d="m -23.149767,-160.11703 c -0.03474,-1.513 -0.07001,-1.83289 -0.244394,-2.21647 -0.299028,-0.65776 -0.67415,-1.05214 -1.285028,-1.35102 -0.469338,-0.22963 -0.637752,-0.26003 -1.248854,-0.22551 -0.654638,0.037 -0.822034,0.0997 -2.286159,0.85578 l -1.579799,0.81587 -0.3435,-0.57055 c -0.692763,-1.15065 -2.357834,-4.11998 -2.357834,-4.20473 0,-0.048 0.548395,-0.41182 1.218655,-0.80844 1.542087,-0.91254 2.190993,-1.53791 2.422667,-2.33485 0.448731,-1.54358 -0.199652,-2.55193 -2.519607,-3.91843 -0.616622,-0.3632 -1.121261,-0.70789 -1.121423,-0.76594 -2.21e-4,-0.0792 2.618162,-4.68784 2.722869,-4.79256 0.01087,-0.0109 0.556914,0.29082 1.213429,0.67043 1.311767,0.75847 1.932121,0.99016 2.651277,0.99016 1.24137,0 1.97083,-0.40265 2.430112,-1.34138 0.24326,-0.49722 0.271195,-0.68612 0.349579,-2.36387 0.04685,-1.0029 0.08762,-1.83467 0.0906,-1.84837 0.003,-0.0137 1.282992,-0.025 2.844481,-0.025 h 2.839071 v 1.6754 c 0,1.97807 0.107575,2.46238 0.695226,3.12998 0.492436,0.55945 1.05538,0.80154 1.846911,0.79426 0.738704,-0.007 1.503301,-0.2878 2.980173,-1.09525 l 1.089373,-0.59559 1.3782376,2.38502 c 0.7580308,1.31177 1.356973,2.41945 1.3309839,2.4615 -0.025989,0.042 -0.5181212,0.36046 -1.0936263,0.70758 -2.1379412,1.28948 -2.6487532,1.90207 -2.6487532,3.17651 0,1.22083 0.587968,1.92661 2.6240266,3.14982 0.6383917,0.38352 1.1608669,0.72117 1.1610567,0.75033 3.692e-4,0.0621 -2.3636593,4.14231 -2.6023463,4.49146 l -0.162086,0.23711 -1.610547,-0.79089 c -1.308502,-0.64257 -1.717342,-0.79863 -2.179997,-0.8321 -1.126905,-0.0815 -1.948632,0.38585 -2.492187,1.41744 -0.255166,0.48426 -0.267103,0.57699 -0.299022,2.3224 l -0.03325,1.818 h -2.869858 -2.86986 z m 3.914737,-5.70292 c 0.86753,-0.16087 1.951635,-0.75194 2.641136,-1.43999 1.575363,-1.57208 1.974542,-3.92846 1.016907,-6.00287 -0.129606,-0.28074 -0.550341,-0.80795 -1.023275,-1.28223 -0.827523,-0.82986 -1.485129,-1.22857 -2.358361,-1.42989 -0.620299,-0.143 -2.041519,-0.12704 -2.628703,0.0295 -2.523045,0.67273 -4.190338,3.18008 -3.834908,5.76711 0.138641,1.00912 0.741801,2.21157 1.47888,2.94825 0.585833,0.58552 1.695487,1.24089 2.368734,1.39899 0.532524,0.12505 1.695305,0.13057 2.33959,0.0111 z"
         id="path5734"
         inkscape:connector-curvature="0" />
    </g>
  </g>
</svg>
