<?xml version="1.0" encoding="UTF-8" standalone="no"?>
<!-- Created with Inkscape (http://www.inkscape.org/) -->

<svg
   xmlns:dc="http://purl.org/dc/elements/1.1/"
   xmlns:cc="http://creativecommons.org/ns#"
   xmlns:rdf="http://www.w3.org/1999/02/22-rdf-syntax-ns#"
   xmlns:svg="http://www.w3.org/2000/svg"
   xmlns="http://www.w3.org/2000/svg"
   xmlns:sodipodi="http://sodipodi.sourceforge.net/DTD/sodipodi-0.dtd"
   xmlns:inkscape="http://www.inkscape.org/namespaces/inkscape"
   width="803.53571mm"
   height="293.83337mm"
   viewBox="0 0 803.5357 293.83338"
   version="1.1"
   id="svg8"
   inkscape:version="0.92.4 (5da689c313, 2019-01-14)"
   sodipodi:docname="drawing.svg">
  <defs
     id="defs2" />
  <sodipodi:namedview
     id="base"
     pagecolor="#ffffff"
     bordercolor="#666666"
     borderopacity="1.0"
     inkscape:pageopacity="0.0"
     inkscape:pageshadow="2"
     inkscape:zoom="0.24748737"
     inkscape:cx="1105.4047"
     inkscape:cy="350.14828"
     inkscape:document-units="mm"
     inkscape:current-layer="g3786"
     showgrid="false"
     inkscape:window-width="1920"
     inkscape:window-height="1017"
     inkscape:window-x="-8"
     inkscape:window-y="-8"
     inkscape:window-maximized="1"
     inkscape:snap-others="false" />
  <metadata
     id="metadata5">
    <rdf:RDF>
      <cc:Work
         rdf:about="">
        <dc:format>image/svg+xml</dc:format>
        <dc:type
           rdf:resource="http://purl.org/dc/dcmitype/StillImage" />
        <dc:title></dc:title>
      </cc:Work>
    </rdf:RDF>
  </metadata>
  <g
     inkscape:label="Layer 1"
     inkscape:groupmode="layer"
     id="layer1"
     transform="translate(447.7738,72.850431)">
    <g
       id="g3786">
      <path
         id="path3781"
         style="fill:none;fill-opacity:1;stroke:#000000;stroke-width:10;stroke-linecap:round;stroke-linejoin:round;stroke-miterlimit:10;stroke-dasharray:none;stroke-opacity:1"
         d="m 263.07142,155.6369 c 0,0 -0.55839,-24.55946 -3.77975,-36.28571 -3.82289,-13.9159 -6.01439,-31.488584 -18.14286,-39.309525 -29.86064,-19.255381 -76.5057,-19.661121 -106.58929,-0.75595 -12.97953,8.156617 -15.76642,26.749045 -19.65476,41.577375 -2.69129,10.26331 -2.26786,31.75 -2.26786,31.75 l -306.49608,-1.5119 c 0,0 -1.35359,-32.53739 -4.40602,-44.52522 -4.2559,-16.714241 -5.15462,-27.043352 -19.78446,-36.17826 -25.22489,-15.750478 -76.83045,-13.494957 -103.1004,0.442828 -12.78322,6.782264 -17.91342,19.773591 -22.80828,33.391602 -5.47161,15.22263 -3.77975,48.38095 -3.77975,48.38095 0,0 -43.04876,-5.28404 -67.32427,-27.03086 -89.55614,-76.312996 62.19821,-98.078569 113.43186,-107.49595 71.44664,-13.1327802 206.604304,-4.272292 273.619573,-6.867752 0,0 91.072056,-15.7156948 136.890317,-13.7590947 C 191.09619,0.97037838 239.4671,-12.873404 348.31062,23.756595 322.00999,14.237353 311.66097,7.9506774 292.9764,0.96354581 245.73403,-16.702833 198.84407,-36.515446 149.58335,-47.347097 92.686505,-59.857812 22.26735,-72.407881 -24.168223,-66.170267 L -99.919236,10.592277 M 348.31062,23.756595 350.7619,87.601188 325.05951,155.6369 h -61.98809"
         inkscape:connector-curvature="0"
         sodipodi:nodetypes="cssssccssssccscscaacccccc" />
      <ellipse
         style="opacity:0;fill:none;fill-opacity:1;stroke-width:10;stroke-linecap:round;stroke-linejoin:round;stroke-miterlimit:10;stroke-dasharray:none"
         id="path4620"
         cx="-230.75096"
         cy="159.51097"
         rx="84.457169"
         ry="49.712132" />
      <path
         style="opacity:0;fill:none;fill-opacity:1;stroke-width:10;stroke-linecap:round;stroke-linejoin:round;stroke-miterlimit:10;stroke-dasharray:none"
         id="path4622"
         sodipodi:type="arc"
         sodipodi:cx="-218.45654"
         sodipodi:cy="165.3909"
         sodipodi:rx="48.643055"
         sodipodi:ry="36.348656"
         sodipodi:start="0"
         sodipodi:end="6.2533727"
         d="m -169.81349,165.3909 a 48.643055,36.348656 0 0 1 -48.28051,36.34765 48.643055,36.348656 0 0 1 -49.00019,-35.80585 48.643055,36.348656 0 0 1 47.55011,-36.88137 48.643055,36.348656 0 0 1 49.70898,35.25608 l -48.62144,1.08349 z" />
    </g>
    <ellipse
       style="opacity:0;fill:none;fill-opacity:1;stroke-width:10;stroke-linecap:round;stroke-linejoin:round;stroke-miterlimit:10;stroke-dasharray:none"
       id="path4602"
       cx="-278.75241"
       cy="126.90407"
       rx="42.228584"
       ry="34.210499" />
    <ellipse
       style="opacity:0;fill:none;fill-opacity:1;stroke-width:10;stroke-linecap:round;stroke-linejoin:round;stroke-miterlimit:10;stroke-dasharray:none"
       id="path4604"
       cx="-302.80667"
       cy="153.63103"
       rx="42.763123"
       ry="31.003265" />
    <ellipse
       style="opacity:0;fill:none;fill-opacity:1;stroke-width:10;stroke-linecap:round;stroke-linejoin:round;stroke-miterlimit:10;stroke-dasharray:none"
       id="path4606"
       cx="-249.88731"
       cy="164.32181"
       rx="80.715393"
       ry="56.66114" />
    <ellipse
       style="opacity:0;fill:none;fill-opacity:1;stroke-width:10;stroke-linecap:round;stroke-linejoin:round;stroke-miterlimit:10;stroke-dasharray:none"
       id="path4608"
       cx="-257.9054"
       cy="115.67875"
       rx="7.4835467"
       ry="5.8799295" />
    <ellipse
       style="opacity:0;fill:none;fill-opacity:1;stroke-width:10;stroke-linecap:round;stroke-linejoin:round;stroke-miterlimit:10;stroke-dasharray:none"
       id="path4610"
       cx="-242.40376"
       cy="152.0274"
       rx="26.192413"
       ry="29.399649" />
  </g>
</svg>
