<?xml version="1.0" encoding="UTF-8" standalone="no"?>
<!-- Created with Inkscape (http://www.inkscape.org/) -->

<svg
   xmlns:dc="http://purl.org/dc/elements/1.1/"
   xmlns:cc="http://creativecommons.org/ns#"
   xmlns:rdf="http://www.w3.org/1999/02/22-rdf-syntax-ns#"
   xmlns:svg="http://www.w3.org/2000/svg"
   xmlns="http://www.w3.org/2000/svg"
   xmlns:sodipodi="http://sodipodi.sourceforge.net/DTD/sodipodi-0.dtd"
   xmlns:inkscape="http://www.inkscape.org/namespaces/inkscape"
   width="210mm"
   height="210mm"
   viewBox="0 0 210 210"
   version="1.1"
   id="svg5"
   inkscape:version="0.92.4 (5da689c313, 2019-01-14)"
   sodipodi:docname="favicon2.ico.svg"
   inkscape:export-filename="C:\Users\Phil Burney\Desktop\Swapmeet\Partsaphi\front-end\public\favicon.ico"
   inkscape:export-xdpi="30.963808"
   inkscape:export-ydpi="30.963808">
  <metadata
     id="metadata5187">
    <rdf:RDF>
      <cc:Work
         rdf:about="">
        <dc:format>image/svg+xml</dc:format>
        <dc:type
           rdf:resource="http://purl.org/dc/dcmitype/StillImage" />
        <dc:title></dc:title>
      </cc:Work>
    </rdf:RDF>
  </metadata>
  <sodipodi:namedview
     id="namedview7"
     pagecolor="#ffffff"
     bordercolor="#666666"
     borderopacity="1.0"
     inkscape:pageshadow="2"
     inkscape:pageopacity="0.0"
     inkscape:pagecheckerboard="true"
     inkscape:document-units="mm"
     showgrid="false"
     inkscape:zoom="0.74118967"
     inkscape:cx="-62.736986"
     inkscape:cy="346.06526"
     inkscape:window-width="1920"
     inkscape:window-height="1017"
     inkscape:window-x="-8"
     inkscape:window-y="-8"
     inkscape:window-maximized="1"
     inkscape:current-layer="g34068" />
  <defs
     id="defs2" />
  <g
     inkscape:label="Layer 1"
     inkscape:groupmode="layer"
     id="layer1">
    <g
       id="g34068"
       transform="matrix(3.7830277,0,0,3.7830277,185.30018,711.83087)">
      <path
         style="fill:#666666;stroke:#000000;stroke-width:0.130483;stroke-miterlimit:4;stroke-dasharray:none;stroke-opacity:1"
         d="m -23.301119,-160.23792 c 0,-0.93388 -0.0719,-1.71674 -0.19617,-2.13509 -0.38561,-1.29853 -1.67096,-1.99171 -2.97604,-1.60498 -0.2974,0.0882 -1.1146,0.4842 -1.81602,0.88017 -0.70143,0.39595 -1.29306,0.69779 -1.31478,0.67074 -0.10417,-0.12983 -2.68618,-4.66604 -2.68618,-4.71925 0,-0.0335 0.50325,-0.34355 1.11835,-0.6888 1.95719,-1.09859 2.52943,-1.77439 2.52943,-2.98716 0,-1.1669 -0.60714,-1.83548 -2.7684,-3.04854 -0.412,-0.23124 -0.77844,-0.46792 -0.8143,-0.52595 -0.0359,-0.0581 0.21932,-0.5947 0.56706,-1.19263 0.34775,-0.59792 0.9633,-1.65541 1.36789,-2.34996 l 0.73563,-1.26282 1.40058,0.80685 c 1.37607,0.79273 1.41768,0.80685 2.37766,0.80685 1.15414,0 1.65123,-0.27029 2.11661,-1.1509 0.24602,-0.46552 0.2937,-0.79749 0.33524,-2.33404 l 0.0484,-1.7913 h 2.78849 2.78847 v 1.69779 c 0,1.2377 0.0546,1.82857 0.20164,2.18037 0.62776,1.50241 2.0233,1.87819 3.77551,1.01661 0.49956,-0.24562 1.20938,-0.62406 1.57741,-0.84097 l 0.66914,-0.39438 1.21112,2.11118 c 0.6661103,1.16116 1.2919603,2.23833 1.3907703,2.39371 0.17273,0.27164 0.12666,0.31353 -1.1970603,1.08721 -0.75718,0.44257 -1.54394,1.00758 -1.74834,1.25557 -0.89848,1.08999 -0.79512,2.45812 0.25711,3.40371 0.21703,0.19503 0.94657,0.68025 1.6212303,1.07827 l 1.22664,0.72365 -1.3091303,2.27273 c -0.72003,1.24999 -1.35217,2.3166 -1.4048,2.37022 -0.0526,0.0537 -0.67906,-0.22577 -1.39212,-0.62088 -1.50225,-0.8324 -2.11266,-1.02853 -2.85479,-0.91724 -0.80838,0.12128 -1.296,0.48621 -1.68054,1.25787 -0.31771,0.63755 -0.34379,0.81642 -0.34379,2.35791 v 1.66803 h -2.80096 -2.80099 z m 4.83026,-6.17054 c 2.47006,-1.16664 3.49763,-4.08022 2.30888,-6.54666 -0.37248,-0.77286 -1.44106,-1.83236 -2.20977,-2.19102 -1.92061,-0.8961 -4.2414,-0.47803 -5.63865,1.01575 -2.57235,2.75003 -1.3134,7.10409 2.33777,8.08515 0.21496,0.0578 0.83501,0.0886 1.37789,0.0686 0.77833,-0.0287 1.16401,-0.12003 1.82388,-0.43174 z"
         id="path23102" />
      <circle
         style="fill:#23ffff;fill-opacity:0.102521;stroke:#646464;stroke-width:1.95049;stroke-miterlimit:4;stroke-dasharray:none;stroke-dashoffset:0;stroke-opacity:1;paint-order:normal"
         id="path23865"
         cx="-20.490267"
         cy="-170.81406"
         r="15.19373" />
      <path
         style="fill:#646464;fill-opacity:1;stroke:#bababb;stroke-width:0;stroke-linecap:square;stroke-miterlimit:4;stroke-dasharray:none;stroke-dashoffset:0;stroke-opacity:1;paint-order:markers stroke fill"
         d="m -24.134859,-145.07104 10e-5,-10.54928 h 3.6445 3.64451 l -6e-5,10.54928 -4e-5,10.54929 h -3.64456 -3.64458 z"
         id="path25971" />
      <path
         style="opacity:1;fill:#000000;fill-opacity:0.98167539;fill-rule:nonzero;stroke:#000000;stroke-width:2.03970861;stroke-linecap:square;stroke-linejoin:miter;stroke-miterlimit:91.40000153;stroke-dasharray:none;stroke-opacity:1;paint-order:markers fill stroke"
         d="M 355.91429,619.84319 V 472.83433 l -5.73402,-1.44912 c -22.4146,-5.66465 -49.45726,-17.67699 -69.1456,-30.71443 -15.91492,-10.53872 -20.59391,-14.34598 -34.8834,-28.38437 -40.69309,-39.97797 -63.28341,-88.38912 -68.52217,-146.84326 -4.25962,-47.52889 9.10911,-100.5133 35.78792,-141.83859 28.67332,-44.41476 73.48419,-78.940654 122.90866,-94.698718 27.85091,-8.879738 35.98834,-10.035675 70.85754,-10.065445 27.80491,-0.02374 33.39302,0.341568 45.41936,2.969162 19.56584,4.27487 36.6203,10.105307 54.11352,18.499876 111.50555,53.508815 160.75488,183.641945 112.72749,297.863585 -26.99741,64.20684 -84.74685,114.5957 -151.88446,132.52566 l -9.10698,2.43213 v 146.86063 146.86062 h -51.26893 -51.26893 z m 84.33994,-170.7972 c 97.14159,-14.79187 170.65552,-101.08293 170.65552,-200.31638 0,-45.30379 -13.0681,-85.04251 -40.47547,-123.08168 -8.48607,-11.77797 -31.1055,-33.919334 -44.18576,-43.251875 -85.1298,-60.738664 -201.55398,-47.48292 -271.565,30.919655 -23.87401,26.73556 -41.43403,62.90114 -48.07986,99.02242 -3.23647,17.59076 -3.23647,53.9159 0,71.50666 16.76316,91.11081 93.11092,160.36129 184.38937,167.24858 15.48465,1.16837 32.89457,0.44479 49.2612,-2.04738 z"
         id="path5732"
         inkscape:connector-curvature="0"
         transform="matrix(0.06993957,0,0,0.06993957,-48.981978,-188.16433)" />
      <path
         style="opacity:1;fill:#000000;fill-opacity:0.98167539;fill-rule:nonzero;stroke:#000000;stroke-width:2.03970861;stroke-linecap:square;stroke-linejoin:miter;stroke-miterlimit:91.40000153;stroke-dasharray:none;stroke-opacity:1;paint-order:markers fill stroke"
         d="m 367.80794,394.81504 c -0.47053,-20.49171 -0.94824,-24.82423 -3.31001,-30.01931 -4.04998,-8.90855 -9.13053,-14.25002 -17.40412,-18.2979 -6.3566,-3.11 -8.63756,-3.52187 -16.91418,-3.0542 -8.86626,0.50099 -11.13343,1.34965 -30.96318,11.59042 l -21.39643,11.04984 -4.65229,-7.72728 c -9.38261,-15.58419 -31.93393,-55.80003 -31.93393,-56.94789 0,-0.65032 7.42733,-5.57752 16.50517,-10.94934 20.88565,-12.35909 29.67428,-20.82914 32.81202,-31.6226 6.07751,-20.9059 -2.70404,-34.56277 -34.12496,-53.07037 -8.35137,-4.91913 -15.18609,-9.58729 -15.18827,-10.3737 -0.003,-1.07268 35.45975,-63.49104 36.87787,-64.90915 0.14725,-0.14726 7.54272,3.93876 16.43439,9.08003 17.76627,10.27268 26.16821,13.41052 35.90828,13.41052 16.81282,0 26.69244,-5.45342 32.91284,-18.16745 3.29467,-6.73407 3.67301,-9.29244 4.73462,-32.01555 0.63459,-13.58314 1.18678,-24.848404 1.22708,-25.033916 0.0403,-0.185513 17.37654,-0.337296 38.52497,-0.337296 h 38.4517 v 22.691222 c 0,26.79039 1.45697,33.34985 9.41597,42.39175 6.66943,7.57687 14.29382,10.85567 25.01412,10.7571 10.00484,-0.092 20.36035,-3.89775 40.36275,-14.83372 l 14.75422,-8.06662 18.66651,32.30233 c 10.26659,17.76628 18.37852,32.76831 18.02653,33.33784 -0.35199,0.56953 -7.01731,4.88198 -14.81181,9.58321 -28.95577,17.46457 -35.87408,25.76135 -35.87408,43.02198 0,16.53473 7.96329,26.09366 35.53919,42.66031 8.64622,5.19435 15.7225,9.76746 15.72507,10.16244 0.005,0.84112 -32.01283,56.10242 -35.24555,60.83131 l -2.19527,3.21127 -21.81285,-10.71171 c -17.72204,-8.70283 -23.25927,-10.81634 -29.52536,-11.2696 -15.26253,-1.10398 -26.3918,5.22579 -33.75358,19.19733 -3.4559,6.55879 -3.61758,7.81456 -4.04989,31.45411 l -0.45028,24.62258 h -38.86868 -38.86869 z m 53.02025,-77.23906 c 11.74962,-2.17867 26.43249,-10.18403 35.77091,-19.50294 21.33635,-21.29174 26.74274,-53.20596 13.77275,-81.30124 -1.75534,-3.80236 -7.45368,-10.94276 -13.85899,-17.36623 -11.20778,-11.23955 -20.11423,-16.63961 -31.94108,-19.36614 -8.40117,-1.93678 -27.64983,-1.7206 -35.60252,0.39985 -34.17152,9.11124 -56.75293,43.07019 -51.93908,78.10834 1.87773,13.66734 10.04678,29.95292 20.0296,39.93043 7.93439,7.93016 22.96328,16.80629 32.08158,18.94754 7.21237,1.69367 22.9608,1.76841 31.68683,0.15039 z"
         id="path5734"
         inkscape:connector-curvature="0"
         transform="matrix(0.06993957,0,0,0.06993957,-48.981978,-188.16433)" />
    </g>
  </g>
</svg>
