<?xml version="1.0" encoding="UTF-8" standalone="no"?>
<!-- Created with Inkscape (http://www.inkscape.org/) -->

<svg
   width="210mm"
   height="210mm"
   viewBox="0 0 210 210"
   version="1.1"
   id="svg5"
   inkscape:version="1.1.1 (3bf5ae0d25, 2021-09-20)"
   sodipodi:docname="favicon.ico.svg"
   inkscape:export-filename="C:\Users\Phil Burney\Desktop\Swapmeet\Partsaphi\front-end\public\favicon.ico"
   inkscape:export-xdpi="30.963808"
   inkscape:export-ydpi="30.963808"
   xmlns:inkscape="http://www.inkscape.org/namespaces/inkscape"
   xmlns:sodipodi="http://sodipodi.sourceforge.net/DTD/sodipodi-0.dtd"
   xmlns="http://www.w3.org/2000/svg"
   xmlns:svg="http://www.w3.org/2000/svg">
  <sodipodi:namedview
     id="namedview7"
     pagecolor="#ffffff"
     bordercolor="#666666"
     borderopacity="1.0"
     inkscape:pageshadow="2"
     inkscape:pageopacity="0.0"
     inkscape:pagecheckerboard="0"
     inkscape:document-units="mm"
     showgrid="false"
     inkscape:zoom="0.74118967"
     inkscape:cx="397.33419"
     inkscape:cy="346.06526"
     inkscape:window-width="2560"
     inkscape:window-height="1017"
     inkscape:window-x="1912"
     inkscape:window-y="-8"
     inkscape:window-maximized="1"
     inkscape:current-layer="layer1" />
  <defs
     id="defs2" />
  <g
     inkscape:label="Layer 1"
     inkscape:groupmode="layer"
     id="layer1">
    <g
       id="g34068"
       transform="matrix(3.7830277,0,0,3.7830277,185.30018,711.83087)">
      <path
         style="fill:#666666;stroke:#000000;stroke-width:0.130483;stroke-miterlimit:4;stroke-dasharray:none;stroke-opacity:1"
         d="m -23.301119,-160.23792 c 0,-0.93388 -0.0719,-1.71674 -0.19617,-2.13509 -0.38561,-1.29853 -1.67096,-1.99171 -2.97604,-1.60498 -0.2974,0.0882 -1.1146,0.4842 -1.81602,0.88017 -0.70143,0.39595 -1.29306,0.69779 -1.31478,0.67074 -0.10417,-0.12983 -2.68618,-4.66604 -2.68618,-4.71925 0,-0.0335 0.50325,-0.34355 1.11835,-0.6888 1.95719,-1.09859 2.52943,-1.77439 2.52943,-2.98716 0,-1.1669 -0.60714,-1.83548 -2.7684,-3.04854 -0.412,-0.23124 -0.77844,-0.46792 -0.8143,-0.52595 -0.0359,-0.0581 0.21932,-0.5947 0.56706,-1.19263 0.34775,-0.59792 0.9633,-1.65541 1.36789,-2.34996 l 0.73563,-1.26282 1.40058,0.80685 c 1.37607,0.79273 1.41768,0.80685 2.37766,0.80685 1.15414,0 1.65123,-0.27029 2.11661,-1.1509 0.24602,-0.46552 0.2937,-0.79749 0.33524,-2.33404 l 0.0484,-1.7913 h 2.78849 2.78847 v 1.69779 c 0,1.2377 0.0546,1.82857 0.20164,2.18037 0.62776,1.50241 2.0233,1.87819 3.77551,1.01661 0.49956,-0.24562 1.20938,-0.62406 1.57741,-0.84097 l 0.66914,-0.39438 1.21112,2.11118 c 0.6661103,1.16116 1.2919603,2.23833 1.3907703,2.39371 0.17273,0.27164 0.12666,0.31353 -1.1970603,1.08721 -0.75718,0.44257 -1.54394,1.00758 -1.74834,1.25557 -0.89848,1.08999 -0.79512,2.45812 0.25711,3.40371 0.21703,0.19503 0.94657,0.68025 1.6212303,1.07827 l 1.22664,0.72365 -1.3091303,2.27273 c -0.72003,1.24999 -1.35217,2.3166 -1.4048,2.37022 -0.0526,0.0537 -0.67906,-0.22577 -1.39212,-0.62088 -1.50225,-0.8324 -2.11266,-1.02853 -2.85479,-0.91724 -0.80838,0.12128 -1.296,0.48621 -1.68054,1.25787 -0.31771,0.63755 -0.34379,0.81642 -0.34379,2.35791 v 1.66803 h -2.80096 -2.80099 z m 4.83026,-6.17054 c 2.47006,-1.16664 3.49763,-4.08022 2.30888,-6.54666 -0.37248,-0.77286 -1.44106,-1.83236 -2.20977,-2.19102 -1.92061,-0.8961 -4.2414,-0.47803 -5.63865,1.01575 -2.57235,2.75003 -1.3134,7.10409 2.33777,8.08515 0.21496,0.0578 0.83501,0.0886 1.37789,0.0686 0.77833,-0.0287 1.16401,-0.12003 1.82388,-0.43174 z"
         id="path23102" />
      <circle
         style="fill:#23ffff;fill-opacity:0.102521;stroke:#646464;stroke-width:1.95049;stroke-miterlimit:4;stroke-dasharray:none;stroke-dashoffset:0;stroke-opacity:1;paint-order:normal"
         id="path23865"
         cx="-20.490267"
         cy="-170.81406"
         r="15.19373" />
      <path
         id="path24351"
         style="fill:#ffffff;fill-opacity:0.52605;stroke:#000000;stroke-width:0.109486;stroke-miterlimit:4;stroke-dasharray:none"
         d="m -17.376139,-182.89444 c -0.81947,-0.51264 -1.82755,-0.51835 -2.76119,-0.46791 -2.7611,0.16801 -5.52553,1.04062 -7.73027,2.74317 -0.96595,0.73164 -1.80431,1.63542 -2.42268,2.67981 -0.95434,1.57781 -1.37745,3.41314 -1.56577,5.23026 -0.0688,0.80066 -0.13885,1.6071 -0.0824,2.4106 0.0384,0.38995 0.10445,0.79633 0.31048,1.13505 0.31455,0.35926 0.9293,0.26512 1.19892,-0.10154 0.79308,-0.72103 1.15432,-1.76007 1.5912,-2.70885 0.68235,-1.6089 1.4807,-3.20566 2.68423,-4.49359 1.55113,-1.72437 3.57607,-2.94388 5.68011,-3.87596 1.09986,-0.52762 2.26112,-1.0108 3.1539,-1.86651 0.14443,-0.20221 0.14397,-0.51789 -0.0564,-0.6845 z" />
      <path
         style="fill:#646464;fill-opacity:1;stroke:#bababb;stroke-width:0;stroke-linecap:square;stroke-miterlimit:4;stroke-dasharray:none;stroke-dashoffset:0;stroke-opacity:1;paint-order:markers stroke fill"
         d="m -24.134859,-145.07104 10e-5,-10.54928 h 3.6445 3.64451 l -6e-5,10.54928 -4e-5,10.54929 h -3.64456 -3.64458 z"
         id="path25971" />
    </g>
  </g>
</svg>
