<?xml version="1.0" encoding="UTF-8"?>
<svg viewBox="0 0 260.725 209.425" xmlns="http://www.w3.org/2000/svg">
 <g transform="matrix(1.25 0 0 -1.25 0 209.42)">
  <g transform="scale(.24)">
   <path d="m865.96 39.168c0-19.883-16.121-36.008-36-36.008h-790.8c-19.887 0-36.008 16.125-36.008 36.008v619.8c0 19.879 16.121 35.996 36.008 35.996h790.8c19.879 0 36-16.117 36-35.996v-619.8" fill="#1d8a7d"/>
   <path d="m865.96 39.168c0-19.883-16.121-36.008-36-36.008h-790.8c-19.887 0-36.008 16.125-36.008 36.008v619.8c0 19.879 16.121 35.996 36.008 35.996h790.8c19.879 0 36-16.117 36-35.996v-619.8z" fill="none" stroke="#1d8a7d" stroke-width="6.325"/>
   <path d="m851.68 58.227c0-20.629-13.078-37.352-29.215-37.352h-775.8c-16.137 0-29.215 16.723-29.215 37.352v581.67c0 20.629 13.078 37.356 29.215 37.356h775.8c16.137 0 29.215-16.727 29.215-37.356v-581.67z" fill="none" stroke="#fff" stroke-width="8.3708"/>
   <path d="m257.4 529.08h-82.898v-32.859h76.152v-27.633h-76.152v-40.473h86.598v-27.636h-118.59v156.23h114.89v-27.633" fill="#fff"/>
   <path d="m445.84 400.48h-39.82l-29.594 53.316-31.555-53.316h-38.074l50.48 79.859-47.652 76.375h38.949l27.852-50.481 28.508 50.481h37.64l-47.652-75.07 50.918-81.164" fill="#fff"/>
   <path d="m495.45 400.48h32.641v156.23h-32.641v-156.23z" fill="#fff"/>
   <path d="m657.56 400.48h-32.641v128.6h-47.215v27.633h127.07v-27.633h-47.218v-128.6" fill="#fff"/>
   <path d="m540.57,316.789c-2.14,2.133-5.129,2.91-7.871,2.332l.043-.109c0,0-154.113-27.996-170.73-31.946l.027-.082c-1.508-.355-2.953-1.121-4.129-2.3-3.379-3.348-3.379-8.789 0-12.141 .453-.457 1.664-1.34 1.664-1.34l57.145-34.941-74.699-74.715 36.636-36.613 74.629,74.757c0,0 35.981-62.226 35.996-62.265 0,0 .903-1.348 1.477-1.946 3.355-3.343 8.808-3.343 12.156,0 1.32,1.333 2.109,2.961 2.406,4.665l11.95,47.281 25.546,121.429 .051-.054c.629,2.789-.129,5.824-2.297,7.988" fill="#fff"/>
  </g>
 </g>
</svg>
