<?xml version="1.0" encoding="UTF-8" standalone="no"?>
<!-- Created with Inkscape (http://www.inkscape.org/) -->

<svg
   sodipodi:docname="inspired_logo_1.svg"
   inkscape:version="1.1.1 (3bf5ae0d25, 2021-09-20)"
   id="svg45957"
   version="1.1"
   viewBox="0 0 231.55634 161.71275"
   height="161.71275mm"
   width="231.55635mm"
   xmlns:inkscape="http://www.inkscape.org/namespaces/inkscape"
   xmlns:sodipodi="http://sodipodi.sourceforge.net/DTD/sodipodi-0.dtd"
   xmlns="http://www.w3.org/2000/svg"
   xmlns:svg="http://www.w3.org/2000/svg">
  <sodipodi:namedview
     id="namedview45959"
     pagecolor="#ffffff"
     bordercolor="#666666"
     borderopacity="1.0"
     inkscape:pageshadow="2"
     inkscape:pageopacity="0.0"
     inkscape:pagecheckerboard="0"
     inkscape:document-units="mm"
     showgrid="true"
     inkscape:zoom="1.0482005"
     inkscape:cx="399.73269"
     inkscape:cy="263.78541"
     inkscape:window-width="2560"
     inkscape:window-height="1017"
     inkscape:window-x="1912"
     inkscape:window-y="-8"
     inkscape:window-maximized="1"
     inkscape:current-layer="layer1"
     inkscape:snap-grids="false"
     inkscape:snap-intersection-paths="true"
     inkscape:object-paths="true"
     inkscape:snap-smooth-nodes="true"
     inkscape:snap-midpoints="true"
     inkscape:snap-bbox="true"
     inkscape:bbox-nodes="true"
     inkscape:snap-nodes="true"
     inkscape:snap-others="true"
     inkscape:snap-global="true"
     fit-margin-top="0"
     fit-margin-left="0"
     fit-margin-right="0"
     fit-margin-bottom="0">
    <inkscape:grid
       type="xygrid"
       id="grid64160" />
  </sodipodi:namedview>
  <defs
     id="defs45954">
    <marker
       style="overflow:visible"
       id="Arrow1Lstart"
       refX="0"
       refY="0"
       orient="auto"
       inkscape:stockid="Arrow1Lstart"
       inkscape:isstock="true">
      <path
         transform="matrix(0.8,0,0,0.8,10,0)"
         style="fill:context-stroke;fill-rule:evenodd;stroke:context-stroke;stroke-width:1pt"
         d="M 0,0 5,-5 -12.5,0 5,5 Z"
         id="path51851" />
    </marker>
    <inkscape:path-effect
       effect="bspline"
       id="path-effect51605"
       is_visible="true"
       lpeversion="1"
       weight="33.333333"
       steps="2"
       helper_size="0"
       apply_no_weight="true"
       apply_with_weight="true"
       only_selected="false" />
    <inkscape:path-effect
       effect="bspline"
       id="path-effect46359"
       is_visible="true"
       lpeversion="1"
       weight="33.333333"
       steps="2"
       helper_size="0"
       apply_no_weight="true"
       apply_with_weight="true"
       only_selected="false" />
    <inkscape:path-effect
       effect="bspline"
       id="path-effect46273"
       is_visible="true"
       lpeversion="1"
       weight="33.333333"
       steps="2"
       helper_size="0"
       apply_no_weight="true"
       apply_with_weight="true"
       only_selected="false" />
  </defs>
  <g
     inkscape:label="Layer 1"
     inkscape:groupmode="layer"
     id="layer1"
     transform="translate(11.007145,200.18326)">
    <rect
       style="fill:none;stroke:#000000;stroke-width:1.56906;stroke-miterlimit:4;stroke-dasharray:none;stroke-opacity:1"
       id="rect46055"
       width="171.4201"
       height="66.113617"
       x="19.060976"
       y="-143.00392" />
    <path
       id="path50940"
       style="fill:none;stroke:#000000;stroke-width:1.7;stroke-linecap:butt;stroke-linejoin:miter;stroke-miterlimit:4;stroke-dasharray:none;stroke-opacity:1"
       d="m 29.787912,-146.41599 -10.909361,3.67265 h 8.05901 l 7.889327,-3.99266 m 145.090132,0.32001 10.90936,3.67265 h -8.05901 l -7.88933,-3.99266" />
    <g
       id="g51311"
       transform="translate(-2.992571,4.1430817)"
       style="fill:none;fill-opacity:1">
      <path
         id="path50642"
         style="fill:#0a76f8;fill-opacity:1;stroke:#000000;stroke-width:5.66929;stroke-linecap:round;stroke-linejoin:round;stroke-miterlimit:4;stroke-dasharray:none;stroke-opacity:1"
         d="m 219.1875,-73.1875 c -19.481,0.14589 -34.93201,1.635497 -47.07812,4.306641 -41.71291,9.173367 -44.46077,32.279268 -50.16797,55.861328 C 109.90958,36.696223 96.193359,126.32031 96.193359,126.32031 l 18.957031,-3.41015 h 526.91602 l 18.95703,3.41015 c 0,0 -13.71814,-89.624087 -25.75,-139.339841 -5.70716,-23.58206 -8.4551,-46.687961 -50.16797,-55.861328 -12.14616,-2.671144 -27.59603,-4.161349 -47.38477,-4.138672 z m 30.69727,38.193359 257.13867,0.103516 c 15.97459,-0.01126 28.44695,0.909839 38.25195,2.566406 33.67295,5.688907 35.89092,20.017961 40.49805,34.6425784 9.71278,30.8317226 20.78711,86.4140626 20.78711,86.4140626 H 150.59766 c 0,0 11.07245,-55.58234 20.78515,-86.4140626 4.60717,-14.6246174 6.8271,-28.9536714 40.5,-34.6425784 9.80504,-1.656567 22.27587,-2.576567 38.00196,-2.669922 z"
         transform="matrix(0.26458333,0,0,0.26458333,8.013808,-183.98132)" />
    </g>
    <g
       id="g62234"
       transform="translate(-42.717202)">
      <path
         id="path46355"
         style="fill:none;stroke:#000000;stroke-width:1.64882;stroke-linecap:butt;stroke-linejoin:miter;stroke-miterlimit:4;stroke-dasharray:none;stroke-opacity:1"
         d="m 19.148903,-131.96217 c -7.439476,0 -14.8787384,0 -19.16122094,0.5654 -4.28248256,0.5654 -5.40814336,1.69594 -6.38699966,2.67905 -0.9788563,0.9831 -1.8108591,1.81871 -2.4022557,2.89421 -0.5913966,1.0755 -0.9422986,2.39076 3.0473154,10.20651 3.989614,7.81576 12.3191975,22.131373 20.6487959,36.447013"
         inkscape:original-d="m 19.148903,-131.96217 c -7.439476,2.2e-4 -14.8787384,2.2e-4 -22.3177865,0 -1.1259168,1.1308 -2.2515701,2.26135 -3.3770346,3.39168 -0.8322545,0.83587 -1.6642621,1.67148 -2.4960642,2.5069 -0.3511391,1.31554 -0.7020396,2.6308 -1.0527357,3.94589 8.3301567,14.31641 16.6597403,28.632025 24.989256,42.947713"
         inkscape:path-effect="#path-effect46359"
         sodipodi:nodetypes="ccsccc" />
      <path
         style="fill:#0a76f8;fill-opacity:1;stroke:#000000;stroke-width:2;stroke-linecap:butt;stroke-linejoin:miter;stroke-miterlimit:4;stroke-dasharray:none;stroke-opacity:1"
         d="m 31.896459,-80.167841 c 0.02957,-17.59713 0.05888,-35.194519 0.08793,-52.792179"
         id="path70880" />
    </g>
    <g
       id="g62256">
      <path
         style="fill:none;stroke:#000000;stroke-width:1.649;stroke-linecap:butt;stroke-linejoin:miter;stroke-miterlimit:4;stroke-dasharray:none;stroke-opacity:1"
         d="m 190.48108,-131.96217 c 7.43948,0 14.87874,0 19.16122,0.5654 4.28249,0.5654 5.40815,1.69594 6.387,2.67905 0.97886,0.9831 1.81086,1.81872 2.40226,2.89421 0.5914,1.0755 0.9423,2.39076 1.11772,10.20649 0.17542,7.81573 0.17542,22.131345 0.17542,36.447033"
         id="path51601"
         inkscape:original-d="m 190.48108,-131.96217 c 7.43948,2.2e-4 14.87874,2.2e-4 22.31779,0 1.12592,1.1308 2.25157,2.26135 3.37703,3.39168 0.83226,0.83587 1.66427,1.67148 2.49607,2.5069 0.35114,1.31554 0.70204,2.6308 1.05273,3.94589 2.2e-4,14.31641 2.2e-4,28.632025 0,42.947713"
         inkscape:path-effect="#path-effect51605" />
      <path
         style="fill:none;stroke:#000000;stroke-width:1.649;stroke-linecap:square;stroke-linejoin:round;stroke-miterlimit:3;stroke-dasharray:none;stroke-opacity:1"
         d="M 219.7247,-79.169988 H 190.48108"
         id="path51723" />
      <rect
         style="fill:#0a0a0a;fill-opacity:1;stroke:#000000;stroke-width:1.99234;stroke-linecap:square;stroke-linejoin:round;stroke-miterlimit:3;stroke-dasharray:none;stroke-opacity:1"
         id="rect62370"
         width="26.263693"
         height="22.646301"
         x="192.18636"
         y="-79.169991" />
      <rect
         style="fill:#0a0a0a;fill-opacity:1;stroke:#000000;stroke-width:1.99234;stroke-linecap:square;stroke-linejoin:round;stroke-miterlimit:3;stroke-dasharray:none;stroke-opacity:1"
         id="rect62828"
         width="26.263693"
         height="22.646301"
         x="-8.7366447"
         y="-79.169991" />
    </g>
    <path
       style="fill:#666666;stroke:#000000;stroke-width:0.094572;stroke-miterlimit:4;stroke-dasharray:none;stroke-opacity:1"
       d="m 167.44005,-113.43556 c 0,-0.67686 -0.0521,-1.24427 -0.14218,-1.54748 -0.27949,-0.94115 -1.21109,-1.44356 -2.15699,-1.16326 -0.21555,0.0639 -0.80784,0.35094 -1.31622,0.63793 -0.50838,0.28698 -0.93719,0.50575 -0.95293,0.48614 -0.0755,-0.0941 -1.9469,-3.38187 -1.9469,-3.42043 0,-0.0243 0.36475,-0.249 0.81056,-0.49923 1.41854,-0.79624 1.83329,-1.28605 1.83329,-2.16505 0,-0.84575 -0.44004,-1.33032 -2.00649,-2.20953 -0.29861,-0.1676 -0.5642,-0.33914 -0.59019,-0.3812 -0.026,-0.0421 0.15896,-0.43103 0.411,-0.8644 0.25204,-0.43336 0.69818,-1.19981 0.99142,-1.70321 l 0.53317,-0.91527 1.01512,0.58479 c 0.99735,0.57456 1.02751,0.58479 1.72329,0.58479 0.8365,0 1.19678,-0.1959 1.53408,-0.83415 0.17831,-0.3374 0.21287,-0.57801 0.24298,-1.69167 l 0.0351,-1.29831 h 2.02105 2.02104 v 1.23053 c 0,0.89707 0.0396,1.32532 0.14614,1.5803 0.45499,1.08892 1.46646,1.36128 2.73643,0.73682 0.36207,-0.17802 0.87654,-0.45231 1.14328,-0.60952 l 0.48498,-0.28584 0.8778,1.53015 c 0.48279,0.84159 0.93639,1.6223 1.00801,1.73492 0.12519,0.19688 0.0918,0.22724 -0.86761,0.78799 -0.54879,0.32077 -1.11902,0.73028 -1.26717,0.91002 -0.6512,0.79 -0.57629,1.7816 0.18635,2.46695 0.1573,0.14135 0.68606,0.49303 1.17504,0.78151 l 0.88905,0.52449 -0.94884,1.64724 c -0.52186,0.90597 -0.98003,1.67903 -1.01817,1.71789 -0.0381,0.0389 -0.49217,-0.16363 -1.00899,-0.45 -1.0888,-0.60331 -1.53122,-0.74546 -2.0691,-0.6648 -0.5859,0.0879 -0.93932,0.3524 -1.21803,0.91168 -0.23027,0.46209 -0.24917,0.59173 -0.24917,1.70898 v 1.20896 h -2.03009 -2.03011 z m 3.50089,-4.47231 c 1.79026,-0.84556 2.53502,-2.95727 1.67344,-4.74491 -0.26997,-0.56015 -1.04446,-1.32806 -1.60161,-1.58801 -1.39202,-0.64948 -3.07409,-0.34647 -4.0868,0.7362 -1.86439,1.99317 -0.95193,5.14892 1.69438,5.85998 0.1558,0.0419 0.6052,0.0642 0.99867,0.0497 0.56412,-0.0208 0.84366,-0.087 1.32192,-0.31292 z"
       id="path23102" />
    <circle
       style="fill:#00ffff;fill-opacity:0.102521;stroke:#646464;stroke-width:1.41368;stroke-miterlimit:4;stroke-dasharray:none;stroke-dashoffset:0;stroke-opacity:1;paint-order:normal"
       id="path23865"
       cx="169.47731"
       cy="-121.10097"
       r="11.012163" />
    <path
       id="path24351"
       style="fill:#ffffff;fill-opacity:0.52605;stroke:#000000;stroke-width:0.0793536;stroke-miterlimit:4;stroke-dasharray:none"
       d="m 171.26034,-129.99758 c -0.59394,-0.37155 -1.32458,-0.37569 -2.00127,-0.33913 -2.0012,0.12177 -4.00481,0.75422 -5.60277,1.9882 -0.7001,0.53028 -1.30773,1.18533 -1.75592,1.94228 -0.69169,1.14357 -0.99835,2.47379 -1.13484,3.79081 -0.0499,0.5803 -0.10064,1.1648 -0.0597,1.74716 0.0278,0.28263 0.0757,0.57717 0.22503,0.82267 0.22798,0.26038 0.67354,0.19215 0.86896,-0.0736 0.57481,-0.52259 0.83663,-1.27567 1.15327,-1.96333 0.49456,-1.1661 1.07319,-2.32341 1.94549,-3.25688 1.12423,-1.24979 2.59187,-2.13367 4.11685,-2.80923 0.79716,-0.38241 1.63882,-0.73261 2.28589,-1.35281 0.10468,-0.14656 0.10435,-0.37536 -0.0409,-0.49612 z" />
    <path
       style="fill:#646464;fill-opacity:1;stroke:#bababb;stroke-width:0;stroke-linecap:square;stroke-miterlimit:4;stroke-dasharray:none;stroke-dashoffset:0;stroke-opacity:1;paint-order:markers stroke fill"
       d="m 166.83577,-102.44286 7e-5,-7.64594 h 2.64147 2.64148 l -4e-5,7.64594 -3e-5,7.64595 h -2.64152 -2.64153 z"
       id="path25971" />
    <text
       xml:space="preserve"
       style="font-size:51.0887px;line-height:2.95;font-family:'Segoe UI';-inkscape-font-specification:'Segoe UI';letter-spacing:-0.264583px;word-spacing:0.264583px;fill:#666666;fill-opacity:1;stroke-width:1.27721"
       x="29.36022"
       y="-88.727806"
       id="text128631"
       transform="scale(0.93941038,1.0644975)"><tspan
         sodipodi:role="line"
         id="tspan128629"
         style="font-style:normal;font-variant:normal;font-weight:bold;font-stretch:normal;font-family:Consolas;-inkscape-font-specification:'Consolas Bold';fill:#666666;fill-opacity:1;stroke-width:1.27721"
         x="29.36022"
         y="-88.727806"
         rotate="0 0 0 0 0 0"
         dy="0">Autaf</tspan></text>
  </g>
</svg>
